/videos/5713ccb0-9828-9e0b-b0ac-6dde31f60311/hls1/main/32.ts

{"Protocol":0,"Id":"5713ccb098289e0bb0ac6dde31f60311","Path":"/data/tvshows/Top Gear/Season 22/Top Gear - S22E02 - Episode 2 WEBDL-720p.mkv","EncoderPath":null,"EncoderProtocol":null,"Type":0,"Container":"mkv,webm","Size":2702997248,"Name":"Top Gear - S22E02 - Episode 2 WEBDL-720p","IsRemote":false,"ETag":"9900ca18a180682f3a35975164f3f144","RunTimeTicks":35307200512,"ReadAtNativeFramerate":false,"IgnoreDts":false,"IgnoreIndex":false,"GenPtsInput":false,"SupportsTranscoding":true,"SupportsDirectStream":true,"SupportsDirectPlay":true,"IsInfiniteStream":false,"RequiresOpening":false,"OpenToken":null,"RequiresClosing":false,"LiveStreamId":null,"BufferMs":null,"RequiresLooping":false,"SupportsProbing":true,"VideoType":0,"IsoType":null,"Video3DFormat":null,"MediaStreams":[{"Codec":"subrip","CodecTag":null,"Language":"hin","ColorRange":null,"ColorSpace":null,"ColorTransfer":null,"ColorPrimaries":null,"DvVersionMajor":null,"DvVersionMinor":null,"DvProfile":null,"DvLevel":null,"RpuPresentFlag":null,"ElPresentFlag":null,"BlPresentFlag":null,"DvBlSignalCompatibilityId":null,"Comment":null,"TimeBase":"1/1000","CodecTimeBase":null,"Title":"en","VideoRange":null,"VideoRangeType":null,"VideoDoViTitle":null,"LocalizedUndefined":"Undefined","LocalizedDefault":"Default","LocalizedForced":"Forced","LocalizedExternal":"External","DisplayTitle":"en - Hindi - SUBRIP - External","NalLengthSize":null,"IsInterlaced":false,"IsAVC":null,"ChannelLayout":null,"BitRate":null,"BitDepth":null,"RefFrames":null,"PacketLength":null,"Channels":null,"SampleRate":null,"IsDefault":false,"IsForced":false,"Height":null,"Width":null,"AverageFrameRate":null,"RealFrameRate":null,"Profile":null,"Type":2,"AspectRatio":null,"Index":0,"Score":null,"IsExternal":true,"DeliveryMethod":null,"DeliveryUrl":null,"IsExternalUrl":null,"IsTextSubtitleStream":true,"SupportsExternalStream":true,"Path":"/data/tvshows/Top Gear/Season 22/Top Gear - S22E02 - Episode 2 WEBDL-720p.en.hi.srt","PixelFormat":null,"Level":0,"IsAnamorphic":null},{"Codec":"h264","CodecTag":null,"Language":"eng","ColorRange":null,"ColorSpace":"bt709","ColorTransfer":"bt709","ColorPrimaries":"bt709","DvVersionMajor":null,"DvVersionMinor":null,"DvProfile":null,"DvLevel":null,"RpuPresentFlag":null,"ElPresentFlag":null,"BlPresentFlag":null,"DvBlSignalCompatibilityId":null,"Comment":null,"TimeBase":"1/1000","CodecTimeBase":null,"Title":null,"VideoRange":"SDR","VideoRangeType":"SDR","VideoDoViTitle":null,"LocalizedUndefined":null,"LocalizedDefault":null,"LocalizedForced":null,"LocalizedExternal":null,"DisplayTitle":"720p H264 SDR","NalLengthSize":"4","IsInterlaced":false,"IsAVC":true,"ChannelLayout":null,"BitRate":6124523,"BitDepth":8,"RefFrames":1,"PacketLength":null,"Channels":null,"SampleRate":null,"IsDefault":true,"IsForced":false,"Height":720,"Width":1280,"AverageFrameRate":25,"RealFrameRate":25,"Profile":"High","Type":1,"AspectRatio":"16:9","Index":1,"Score":null,"IsExternal":false,"DeliveryMethod":null,"DeliveryUrl":null,"IsExternalUrl":null,"IsTextSubtitleStream":false,"SupportsExternalStream":false,"Path":null,"PixelFormat":"yuv420p","Level":31,"IsAnamorphic":null},{"Codec":"eac3","CodecTag":null,"Language":"eng","ColorRange":null,"ColorSpace":null,"ColorTransfer":null,"ColorPrimaries":null,"DvVersionMajor":null,"DvVersionMinor":null,"DvProfile":null,"DvLevel":null,"RpuPresentFlag":null,"ElPresentFlag":null,"BlPresentFlag":null,"DvBlSignalCompatibilityId":null,"Comment":null,"TimeBase":"1/1000","CodecTimeBase":null,"Title":"English","VideoRange":null,"VideoRangeType":null,"VideoDoViTitle":null,"LocalizedUndefined":null,"LocalizedDefault":null,"LocalizedForced":null,"LocalizedExternal":null,"DisplayTitle":"English - Dolby Digital\u002B - Stereo - Default","NalLengthSize":null,"IsInterlaced":false,"IsAVC":null,"ChannelLayout":"stereo","BitRate":224000,"BitDepth":null,"RefFrames":null,"PacketLength":null,"Channels":2,"SampleRate":48000,"IsDefault":true,"IsForced":false,"Height":null,"Width":null,"AverageFrameRate":null,"RealFrameRate":null,"Profile":null,"Type":0,"AspectRatio":null,"Index":2,"Score":null,"IsExternal":false,"DeliveryMethod":null,"DeliveryUrl":null,"IsExternalUrl":null,"IsTextSubtitleStream":false,"SupportsExternalStream":false,"Path":null,"PixelFormat":null,"Level":0,"IsAnamorphic":null},{"Codec":"subrip","CodecTag":null,"Language":"eng","ColorRange":null,"ColorSpace":null,"ColorTransfer":null,"ColorPrimaries":null,"DvVersionMajor":null,"DvVersionMinor":null,"DvProfile":null,"DvLevel":null,"RpuPresentFlag":null,"ElPresentFlag":null,"BlPresentFlag":null,"DvBlSignalCompatibilityId":null,"Comment":null,"TimeBase":"1/1000","CodecTimeBase":null,"Title":"English (SDH)","VideoRange":null,"VideoRangeType":null,"VideoDoViTitle":null,"LocalizedUndefined":"Undefined","LocalizedDefault":"Default","LocalizedForced":"Forced","LocalizedExternal":"External","DisplayTitle":"English (SDH) - SUBRIP","NalLengthSize":null,"IsInterlaced":false,"IsAVC":null,"ChannelLayout":null,"BitRate":null,"BitDepth":null,"RefFrames":null,"PacketLength":null,"Channels":null,"SampleRate":null,"IsDefault":false,"IsForced":false,"Height":null,"Width":null,"AverageFrameRate":null,"RealFrameRate":null,"Profile":null,"Type":2,"AspectRatio":null,"Index":3,"Score":null,"IsExternal":false,"DeliveryMethod":null,"DeliveryUrl":null,"IsExternalUrl":null,"IsTextSubtitleStream":true,"SupportsExternalStream":true,"Path":null,"PixelFormat":null,"Level":0,"IsAnamorphic":null}],"MediaAttachments":[],"Formats":[],"Bitrate":6348523,"Timestamp":null,"RequiredHttpHeaders":{},"TranscodingUrl":null,"TranscodingSubProtocol":null,"TranscodingContainer":null,"AnalyzeDurationMs":null,"DefaultAudioStreamIndex":null,"DefaultSubtitleStreamIndex":null}

/usr/lib/jellyfin-ffmpeg/ffmpeg -analyzeduration 200M -ss 00:03:12.000 -fflags +genpts -f matroska,webm  -i file:"/data/tvshows/Top Gear/Season 22/Top Gear - S22E02 - Episode 2 WEBDL-720p.mkv" -map_metadata -1 -map_chapters -1 -threads 0 -map 0:0 -map 0:1 -map -0:s -codec:v:0 copy -bsf:v h264_mp4toannexb -start_at_zero -codec:a:0 libfdk_aac -ac 2 -ab 256000 -copyts -avoid_negative_ts disabled -max_muxing_queue_size 2048 -f hls -max_delay 5000000 -hls_time 6 -hls_segment_type mpegts -start_number 32 -hls_segment_filename "/data/transcodes/9f63163b61b92ef96dd6b4b86ab31d7c%d.ts" -hls_playlist_type vod -hls_list_size 0 -y "/data/transcodes/9f63163b61b92ef96dd6b4b86ab31d7c.m3u8"


ffmpeg version 5.1.3-Jellyfin Copyright (c) 2000-2022 the FFmpeg developers
  built with gcc 11 (Ubuntu 11.3.0-1ubuntu1~22.04.1)
  configuration: --prefix=/usr/lib/jellyfin-ffmpeg --target-os=linux --extra-libs=-lfftw3f --extra-version=Jellyfin --disable-doc --disable-ffplay --disable-ptx-compression --disable-static --disable-libxcb --disable-sdl2 --disable-xlib --enable-lto --enable-gpl --enable-version3 --enable-shared --enable-gmp --enable-gnutls --enable-chromaprint --enable-libdrm --enable-libass --enable-libfreetype --enable-libfribidi --enable-libfontconfig --enable-libbluray --enable-libmp3lame --enable-libopus --enable-libtheora --enable-libvorbis --enable-libopenmpt --enable-libdav1d --enable-libwebp --enable-libvpx --enable-libx264 --enable-libx265 --enable-libzvbi --enable-libzimg --enable-libfdk-aac --arch=amd64 --enable-libsvtav1 --enable-libshaderc --enable-libplacebo --enable-vulkan --enable-opencl --enable-vaapi --enable-amf --enable-libmfx --enable-ffnvcodec --enable-cuda --enable-cuda-llvm --enable-cuvid --enable-nvdec --enable-nvenc
  libavutil      57. 28.100 / 57. 28.100
  libavcodec     59. 37.100 / 59. 37.100
  libavformat    59. 27.100 / 59. 27.100
  libavdevice    59.  7.100 / 59.  7.100
  libavfilter     8. 44.100 /  8. 44.100
  libswscale      6.  7.100 /  6.  7.100
  libswresample   4.  7.100 /  4.  7.100
  libpostproc    56.  6.100 / 56.  6.100
Input #0, matroska,webm, from 'file:/data/tvshows/Top Gear/Season 22/Top Gear - S22E02 - Episode 2 WEBDL-720p.mkv':
  Metadata:
    encoder         : libebml v1.4.0 + libmatroska v1.6.2
  Duration: 00:58:50.72, start: 0.000000, bitrate: 6124 kb/s
  Stream #0:0(eng): Video: h264 (High), yuv420p(tv, bt709, progressive), 1280x720 [SAR 1:1 DAR 16:9], 25 fps, 25 tbr, 1k tbn (default)
    Metadata:
      BPS-eng         : 5898418
      DURATION-eng    : 00:58:50.680000000
      NUMBER_OF_FRAMES-eng: 88267
      NUMBER_OF_BYTES-eng: 2603178658
      _STATISTICS_WRITING_APP-eng: mkvmerge v51.0.0 ('I Wish') 64-bit
      _STATISTICS_WRITING_DATE_UTC-eng: 2020-12-30 10:29:32
      _STATISTICS_TAGS-eng: BPS DURATION NUMBER_OF_FRAMES NUMBER_OF_BYTES
  Stream #0:1(eng): Audio: eac3, 48000 Hz, stereo, fltp, 224 kb/s (default)
    Metadata:
      title           : English
      BPS-eng         : 224000
      DURATION-eng    : 00:58:50.720000000
      NUMBER_OF_FRAMES-eng: 110335
      NUMBER_OF_BYTES-eng: 98860160
      _STATISTICS_WRITING_APP-eng: mkvmerge v51.0.0 ('I Wish') 64-bit
      _STATISTICS_WRITING_DATE_UTC-eng: 2020-12-30 10:29:32
      _STATISTICS_TAGS-eng: BPS DURATION NUMBER_OF_FRAMES NUMBER_OF_BYTES
  Stream #0:2(eng): Subtitle: subrip
    Metadata:
      title           : English (SDH)
      BPS-eng         : 101
      DURATION-eng    : 00:58:08.800000000
      NUMBER_OF_FRAMES-eng: 1067
      NUMBER_OF_BYTES-eng: 44308
      _STATISTICS_WRITING_APP-eng: mkvmerge v51.0.0 ('I Wish') 64-bit
      _STATISTICS_WRITING_DATE_UTC-eng: 2020-12-30 10:29:32
      _STATISTICS_TAGS-eng: BPS DURATION NUMBER_OF_FRAMES NUMBER_OF_BYTES
Stream mapping:
  Stream #0:0 -> #0:0 (copy)
  Stream #0:1 -> #0:1 (eac3 (native) -> aac (libfdk_aac))
Press [q] to stop, [?] for help
Output #0, hls, to '/data/transcodes/9f63163b61b92ef96dd6b4b86ab31d7c.m3u8':
  Metadata:
    encoder         : Lavf59.27.100
  Stream #0:0: Video: h264 (High), yuv420p(tv, bt709, progressive), 1280x720 [SAR 1:1 DAR 16:9], q=2-31, 25 fps, 25 tbr, 90k tbn (default)
  Stream #0:1: Audio: aac, 48000 Hz, stereo, s16, 256 kb/s (default)
    Metadata:
      encoder         : Lavc59.37.100 libfdk_aac
frame=    1 fps=0.0 q=-1.0 size=N/A time=-00:03:09.96 bitrate=N/A speed=N/A    
[hls @ 0x55d63b21dd40] Opening '/data/transcodes/9f63163b61b92ef96dd6b4b86ab31d7c32.ts' for writing
[hls @ 0x55d63b21dd40] Opening '/data/transcodes/9f63163b61b92ef96dd6b4b86ab31d7c33.ts' for writing
frame=  417 fps=0.0 q=-1.0 size=N/A time=00:00:16.90 bitrate=N/A speed=33.7x    
[hls @ 0x55d63b21dd40] Opening '/data/transcodes/9f63163b61b92ef96dd6b4b86ab31d7c34.ts' for writing
[hls @ 0x55d63b21dd40] Opening '/data/transcodes/9f63163b61b92ef96dd6b4b86ab31d7c35.ts' for writing
[hls @ 0x55d63b21dd40] Opening '/data/transcodes/9f63163b61b92ef96dd6b4b86ab31d7c36.ts' for writing
[hls @ 0x55d63b21dd40] Opening '/data/transcodes/9f63163b61b92ef96dd6b4b86ab31d7c37.ts' for writing
frame=  933 fps=932 q=-1.0 size=N/A time=00:00:37.47 bitrate=N/A speed=37.4x    
[hls @ 0x55d63b21dd40] Opening '/data/transcodes/9f63163b61b92ef96dd6b4b86ab31d7c38.ts' for writing
[hls @ 0x55d63b21dd40] Opening '/data/transcodes/9f63163b61b92ef96dd6b4b86ab31d7c39.ts' for writing
[hls @ 0x55d63b21dd40] Opening '/data/transcodes/9f63163b61b92ef96dd6b4b86ab31d7c40.ts' for writing
frame= 1419 fps=945 q=-1.0 size=N/A time=00:00:56.99 bitrate=N/A speed=37.9x    
[hls @ 0x55d63b21dd40] Opening '/data/transcodes/9f63163b61b92ef96dd6b4b86ab31d7c41.ts' for writing
[hls @ 0x55d63b21dd40] Opening '/data/transcodes/9f63163b61b92ef96dd6b4b86ab31d7c42.ts' for writing
[hls @ 0x55d63b21dd40] Opening '/data/transcodes/9f63163b61b92ef96dd6b4b86ab31d7c43.ts' for writing
frame= 1887 fps=942 q=-1.0 size=N/A time=00:01:15.72 bitrate=N/A speed=37.8x    
[hls @ 0x55d63b21dd40] Opening '/data/transcodes/9f63163b61b92ef96dd6b4b86ab31d7c44.ts' for writing
[hls @ 0x55d63b21dd40] Opening '/data/transcodes/9f63163b61b92ef96dd6b4b86ab31d7c45.ts' for writing
[hls @ 0x55d63b21dd40] Opening '/data/transcodes/9f63163b61b92ef96dd6b4b86ab31d7c46.ts' for writing
frame= 2351 fps=939 q=-1.0 size=N/A time=00:01:34.11 bitrate=N/A speed=37.6x    
[hls @ 0x55d63b21dd40] Opening '/data/transcodes/9f63163b61b92ef96dd6b4b86ab31d7c47.ts' for writing
[hls @ 0x55d63b21dd40] Opening '/data/transcodes/9f63163b61b92ef96dd6b4b86ab31d7c48.ts' for writing
[hls @ 0x55d63b21dd40] Opening '/data/transcodes/9f63163b61b92ef96dd6b4b86ab31d7c49.ts' for writing
frame= 2784 fps=927 q=-1.0 size=N/A time=00:01:51.50 bitrate=N/A speed=37.1x    
[hls @ 0x55d63b21dd40] Opening '/data/transcodes/9f63163b61b92ef96dd6b4b86ab31d7c50.ts' for writing
[hls @ 0x55d63b21dd40] Opening '/data/transcodes/9f63163b61b92ef96dd6b4b86ab31d7c51.ts' for writing
[hls @ 0x55d63b21dd40] Opening '/data/transcodes/9f63163b61b92ef96dd6b4b86ab31d7c52.ts' for writing
frame= 3231 fps=922 q=-1.0 size=N/A time=00:02:09.31 bitrate=N/A speed=36.9x    
[hls @ 0x55d63b21dd40] Opening '/data/transcodes/9f63163b61b92ef96dd6b4b86ab31d7c53.ts' for writing
[hls @ 0x55d63b21dd40] Opening '/data/transcodes/9f63163b61b92ef96dd6b4b86ab31d7c54.ts' for writing
frame= 3581 fps=894 q=-1.0 size=N/A time=00:02:23.33 bitrate=N/A speed=35.8x    
[hls @ 0x55d63b21dd40] Opening '/data/transcodes/9f63163b61b92ef96dd6b4b86ab31d7c55.ts' for writing
[hls @ 0x55d63b21dd40] Opening '/data/transcodes/9f63163b61b92ef96dd6b4b86ab31d7c56.ts' for writing
[hls @ 0x55d63b21dd40] Opening '/data/transcodes/9f63163b61b92ef96dd6b4b86ab31d7c57.ts' for writing
frame= 3901 fps=866 q=-1.0 size=N/A time=00:02:36.10 bitrate=N/A speed=34.6x    
[hls @ 0x55d63b21dd40] Opening '/data/transcodes/9f63163b61b92ef96dd6b4b86ab31d7c58.ts' for writing
[hls @ 0x55d63b21dd40] Opening '/data/transcodes/9f63163b61b92ef96dd6b4b86ab31d7c59.ts' for writing
frame= 4295 fps=858 q=-1.0 size=N/A time=00:02:51.93 bitrate=N/A speed=34.3x    
[hls @ 0x55d63b21dd40] Opening '/data/transcodes/9f63163b61b92ef96dd6b4b86ab31d7c60.ts' for writing
frame= 4481 fps=813 q=-1.0 size=N/A time=00:02:59.40 bitrate=N/A speed=32.6x    
[hls @ 0x55d63b21dd40] Opening '/data/transcodes/9f63163b61b92ef96dd6b4b86ab31d7c61.ts' for writing
frame= 4601 fps=766 q=-1.0 size=N/A time=00:03:04.09 bitrate=N/A speed=30.6x    
[hls @ 0x55d63b21dd40] Opening '/data/transcodes/9f63163b61b92ef96dd6b4b86ab31d7c62.ts' for writing
[hls @ 0x55d63b21dd40] Opening '/data/transcodes/9f63163b61b92ef96dd6b4b86ab31d7c63.ts' for writing
frame= 4831 fps=742 q=-1.0 size=N/A time=00:03:13.48 bitrate=N/A speed=29.7x    
[hls @ 0x55d63b21dd40] Opening '/data/transcodes/9f63163b61b92ef96dd6b4b86ab31d7c64.ts' for writing
frame= 4985 fps=711 q=-1.0 size=N/A time=00:03:19.50 bitrate=N/A speed=28.5x    
[hls @ 0x55d63b21dd40] Opening '/data/transcodes/9f63163b61b92ef96dd6b4b86ab31d7c65.ts' for writing
frame= 5227 fps=696 q=-1.0 size=N/A time=00:03:29.12 bitrate=N/A speed=27.8x    
[hls @ 0x55d63b21dd40] Opening '/data/transcodes/9f63163b61b92ef96dd6b4b86ab31d7c66.ts' for writing
[hls @ 0x55d63b21dd40] Opening '/data/transcodes/9f63163b61b92ef96dd6b4b86ab31d7c67.ts' for writing
frame= 5413 fps=676 q=-1.0 size=N/A time=00:03:36.73 bitrate=N/A speed=27.1x    
[hls @ 0x55d63b21dd40] Opening '/data/transcodes/9f63163b61b92ef96dd6b4b86ab31d7c68.ts' for writing
[hls @ 0x55d63b21dd40] Opening '/data/transcodes/9f63163b61b92ef96dd6b4b86ab31d7c69.ts' for writing
frame= 5757 fps=676 q=-1.0 size=N/A time=00:03:50.34 bitrate=N/A speed=27.1x    
[hls @ 0x55d63b21dd40] Opening '/data/transcodes/9f63163b61b92ef96dd6b4b86ab31d7c70.ts' for writing
[hls @ 0x55d63b21dd40] Opening '/data/transcodes/9f63163b61b92ef96dd6b4b86ab31d7c71.ts' for writing
frame= 6051 fps=671 q=-1.0 size=N/A time=00:04:02.12 bitrate=N/A speed=26.8x    
[hls @ 0x55d63b21dd40] Opening '/data/transcodes/9f63163b61b92ef96dd6b4b86ab31d7c72.ts' for writing
[hls @ 0x55d63b21dd40] Opening '/data/transcodes/9f63163b61b92ef96dd6b4b86ab31d7c73.ts' for writing
frame= 6439 fps=676 q=-1.0 size=N/A time=00:04:17.80 bitrate=N/A speed=27.1x    
[hls @ 0x55d63b21dd40] Opening '/data/transcodes/9f63163b61b92ef96dd6b4b86ab31d7c74.ts' for writing
[hls @ 0x55d63b21dd40] Opening '/data/transcodes/9f63163b61b92ef96dd6b4b86ab31d7c75.ts' for writing
[hls @ 0x55d63b21dd40] Opening '/data/transcodes/9f63163b61b92ef96dd6b4b86ab31d7c76.ts' for writing
frame= 6851 fps=684 q=-1.0 size=N/A time=00:04:34.06 bitrate=N/A speed=27.3x    
[hls @ 0x55d63b21dd40] Opening '/data/transcodes/9f63163b61b92ef96dd6b4b86ab31d7c77.ts' for writing
[hls @ 0x55d63b21dd40] Opening '/data/transcodes/9f63163b61b92ef96dd6b4b86ab31d7c78.ts' for writing
[hls @ 0x55d63b21dd40] Opening '/data/transcodes/9f63163b61b92ef96dd6b4b86ab31d7c79.ts' for writing
frame= 7220 fps=686 q=-1.0 size=N/A time=00:04:48.93 bitrate=N/A speed=27.5x    
[hls @ 0x55d63b21dd40] Opening '/data/transcodes/9f63163b61b92ef96dd6b4b86ab31d7c80.ts' for writing
[hls @ 0x55d63b21dd40] Opening '/data/transcodes/9f63163b61b92ef96dd6b4b86ab31d7c81.ts' for writing
frame= 7533 fps=683 q=-1.0 size=N/A time=00:05:01.34 bitrate=N/A speed=27.3x    
[hls @ 0x55d63b21dd40] Opening '/data/transcodes/9f63163b61b92ef96dd6b4b86ab31d7c82.ts' for writing
frame= 7775 fps=675 q=-1.0 size=N/A time=00:05:11.24 bitrate=N/A speed=  27x    
[hls @ 0x55d63b21dd40] Opening '/data/transcodes/9f63163b61b92ef96dd6b4b86ab31d7c83.ts' for writing
[hls @ 0x55d63b21dd40] Opening '/data/transcodes/9f63163b61b92ef96dd6b4b86ab31d7c84.ts' for writing
[hls @ 0x55d63b21dd40] Opening '/data/transcodes/9f63163b61b92ef96dd6b4b86ab31d7c85.ts' for writing
frame= 8113 fps=675 q=-1.0 size=N/A time=00:05:24.68 bitrate=N/A speed=  27x    
[hls @ 0x55d63b21dd40] Opening '/data/transcodes/9f63163b61b92ef96dd6b4b86ab31d7c86.ts' for writing
[hls @ 0x55d63b21dd40] Opening '/data/transcodes/9f63163b61b92ef96dd6b4b86ab31d7c87.ts' for writing
frame= 8457 fps=675 q=-1.0 size=N/A time=00:05:38.25 bitrate=N/A speed=  27x    
[hls @ 0x55d63b21dd40] Opening '/data/transcodes/9f63163b61b92ef96dd6b4b86ab31d7c88.ts' for writing
[hls @ 0x55d63b21dd40] Opening '/data/transcodes/9f63163b61b92ef96dd6b4b86ab31d7c89.ts' for writing
frame= 8806 fps=676 q=-1.0 size=N/A time=00:05:52.35 bitrate=N/A speed=27.1x    
[hls @ 0x55d63b21dd40] Opening '/data/transcodes/9f63163b61b92ef96dd6b4b86ab31d7c90.ts' for writing
[hls @ 0x55d63b21dd40] Opening '/data/transcodes/9f63163b61b92ef96dd6b4b86ab31d7c91.ts' for writing
[hls @ 0x55d63b21dd40] Opening '/data/transcodes/9f63163b61b92ef96dd6b4b86ab31d7c92.ts' for writing
frame= 9212 fps=681 q=-1.0 size=N/A time=00:06:08.73 bitrate=N/A speed=27.3x    
[hls @ 0x55d63b21dd40] Opening '/data/transcodes/9f63163b61b92ef96dd6b4b86ab31d7c93.ts' for writing
[hls @ 0x55d63b21dd40] Opening '/data/transcodes/9f63163b61b92ef96dd6b4b86ab31d7c94.ts' for writing
frame= 9596 fps=684 q=-1.0 size=N/A time=00:06:23.94 bitrate=N/A speed=27.4x    
[hls @ 0x55d63b21dd40] Opening '/data/transcodes/9f63163b61b92ef96dd6b4b86ab31d7c95.ts' for writing
[hls @ 0x55d63b21dd40] Opening '/data/transcodes/9f63163b61b92ef96dd6b4b86ab31d7c96.ts' for writing
[hls @ 0x55d63b21dd40] Opening '/data/transcodes/9f63163b61b92ef96dd6b4b86ab31d7c97.ts' for writing
frame= 9971 fps=686 q=-1.0 size=N/A time=00:06:38.98 bitrate=N/A speed=27.5x    
[hls @ 0x55d63b21dd40] Opening '/data/transcodes/9f63163b61b92ef96dd6b4b86ab31d7c98.ts' for writing
[hls @ 0x55d63b21dd40] Opening '/data/transcodes/9f63163b61b92ef96dd6b4b86ab31d7c99.ts' for writing
frame=10301 fps=686 q=-1.0 size=N/A time=00:06:52.13 bitrate=N/A speed=27.4x    
[hls @ 0x55d63b21dd40] Opening '/data/transcodes/9f63163b61b92ef96dd6b4b86ab31d7c100.ts' for writing
[hls @ 0x55d63b21dd40] Opening '/data/transcodes/9f63163b61b92ef96dd6b4b86ab31d7c101.ts' for writing
frame=10575 fps=681 q=-1.0 size=N/A time=00:07:03.13 bitrate=N/A speed=27.3x    
[hls @ 0x55d63b21dd40] Opening '/data/transcodes/9f63163b61b92ef96dd6b4b86ab31d7c102.ts' for writing
[hls @ 0x55d63b21dd40] Opening '/data/transcodes/9f63163b61b92ef96dd6b4b86ab31d7c103.ts' for writing
frame=10855 fps=677 q=-1.0 size=N/A time=00:07:14.33 bitrate=N/A speed=27.1x    
[hls @ 0x55d63b21dd40] Opening '/data/transcodes/9f63163b61b92ef96dd6b4b86ab31d7c104.ts' for writing
[hls @ 0x55d63b21dd40] Opening '/data/transcodes/9f63163b61b92ef96dd6b4b86ab31d7c105.ts' for writing
frame=11146 fps=674 q=-1.0 size=N/A time=00:07:25.77 bitrate=N/A speed=  27x    
[hls @ 0x55d63b21dd40] Opening '/data/transcodes/9f63163b61b92ef96dd6b4b86ab31d7c106.ts' for writing
frame=11362 fps=667 q=-1.0 size=N/A time=00:07:34.56 bitrate=N/A speed=26.7x    
[hls @ 0x55d63b21dd40] Opening '/data/transcodes/9f63163b61b92ef96dd6b4b86ab31d7c107.ts' for writing
[hls @ 0x55d63b21dd40] Opening '/data/transcodes/9f63163b61b92ef96dd6b4b86ab31d7c108.ts' for writing
[hls @ 0x55d63b21dd40] Opening '/data/transcodes/9f63163b61b92ef96dd6b4b86ab31d7c109.ts' for writing
frame=11745 fps=670 q=-1.0 size=N/A time=00:07:49.90 bitrate=N/A speed=26.8x    
[hls @ 0x55d63b21dd40] Opening '/data/transcodes/9f63163b61b92ef96dd6b4b86ab31d7c110.ts' for writing
[hls @ 0x55d63b21dd40] Opening '/data/transcodes/9f63163b61b92ef96dd6b4b86ab31d7c111.ts' for writing
frame=12027 fps=667 q=-1.0 size=N/A time=00:08:01.25 bitrate=N/A speed=26.7x    
[hls @ 0x55d63b21dd40] Opening '/data/transcodes/9f63163b61b92ef96dd6b4b86ab31d7c112.ts' for writing
[hls @ 0x55d63b21dd40] Opening '/data/transcodes/9f63163b61b92ef96dd6b4b86ab31d7c113.ts' for writing
frame=12301 fps=663 q=-1.0 size=N/A time=00:08:12.00 bitrate=N/A speed=26.5x    
[hls @ 0x55d63b21dd40] Opening '/data/transcodes/9f63163b61b92ef96dd6b4b86ab31d7c114.ts' for writing
[hls @ 0x55d63b21dd40] Opening '/data/transcodes/9f63163b61b92ef96dd6b4b86ab31d7c115.ts' for writing
frame=12661 fps=664 q=-1.0 size=N/A time=00:08:26.63 bitrate=N/A speed=26.6x    
[hls @ 0x55d63b21dd40] Opening '/data/transcodes/9f63163b61b92ef96dd6b4b86ab31d7c116.ts' for writing
[hls @ 0x55d63b21dd40] Opening '/data/transcodes/9f63163b61b92ef96dd6b4b86ab31d7c117.ts' for writing
frame=13004 fps=665 q=-1.0 size=N/A time=00:08:40.29 bitrate=N/A speed=26.6x    
[hls @ 0x55d63b21dd40] Opening '/data/transcodes/9f63163b61b92ef96dd6b4b86ab31d7c118.ts' for writing
[hls @ 0x55d63b21dd40] Opening '/data/transcodes/9f63163b61b92ef96dd6b4b86ab31d7c119.ts' for writing
[hls @ 0x55d63b21dd40] Opening '/data/transcodes/9f63163b61b92ef96dd6b4b86ab31d7c120.ts' for writing
frame=13370 fps=666 q=-1.0 size=N/A time=00:08:54.86 bitrate=N/A speed=26.7x    
[hls @ 0x55d63b21dd40] Opening '/data/transcodes/9f63163b61b92ef96dd6b4b86ab31d7c121.ts' for writing
[hls @ 0x55d63b21dd40] Opening '/data/transcodes/9f63163b61b92ef96dd6b4b86ab31d7c122.ts' for writing
frame=13789 fps=671 q=-1.0 size=N/A time=00:09:11.71 bitrate=N/A speed=26.8x    
[hls @ 0x55d63b21dd40] Opening '/data/transcodes/9f63163b61b92ef96dd6b4b86ab31d7c123.ts' for writing
[hls @ 0x55d63b21dd40] Opening '/data/transcodes/9f63163b61b92ef96dd6b4b86ab31d7c124.ts' for writing
[hls @ 0x55d63b21dd40] Opening '/data/transcodes/9f63163b61b92ef96dd6b4b86ab31d7c125.ts' for writing
[hls @ 0x55d63b21dd40] Opening '/data/transcodes/9f63163b61b92ef96dd6b4b86ab31d7c126.ts' for writing
frame=14255 fps=677 q=-1.0 size=N/A time=00:09:30.27 bitrate=N/A speed=27.1x    
[hls @ 0x55d63b21dd40] Opening '/data/transcodes/9f63163b61b92ef96dd6b4b86ab31d7c127.ts' for writing
[hls @ 0x55d63b21dd40] Opening '/data/transcodes/9f63163b61b92ef96dd6b4b86ab31d7c128.ts' for writing
[hls @ 0x55d63b21dd40] Opening '/data/transcodes/9f63163b61b92ef96dd6b4b86ab31d7c129.ts' for writing
frame=14701 fps=682 q=-1.0 size=N/A time=00:09:48.00 bitrate=N/A speed=27.3x    
[hls @ 0x55d63b21dd40] Opening '/data/transcodes/9f63163b61b92ef96dd6b4b86ab31d7c130.ts' for writing
[hls @ 0x55d63b21dd40] Opening '/data/transcodes/9f63163b61b92ef96dd6b4b86ab31d7c131.ts' for writing
frame=15074 fps=683 q=-1.0 size=N/A time=00:10:03.10 bitrate=N/A speed=27.3x    
[hls @ 0x55d63b21dd40] Opening '/data/transcodes/9f63163b61b92ef96dd6b4b86ab31d7c132.ts' for writing
[hls @ 0x55d63b21dd40] Opening '/data/transcodes/9f63163b61b92ef96dd6b4b86ab31d7c133.ts' for writing
frame=15395 fps=682 q=-1.0 size=N/A time=00:10:15.88 bitrate=N/A speed=27.3x    
[hls @ 0x55d63b21dd40] Opening '/data/transcodes/9f63163b61b92ef96dd6b4b86ab31d7c134.ts' for writing
[hls @ 0x55d63b21dd40] Opening '/data/transcodes/9f63163b61b92ef96dd6b4b86ab31d7c135.ts' for writing
frame=15660 fps=679 q=-1.0 size=N/A time=00:10:26.46 bitrate=N/A speed=27.2x    
[hls @ 0x55d63b21dd40] Opening '/data/transcodes/9f63163b61b92ef96dd6b4b86ab31d7c136.ts' for writing
frame=15863 fps=673 q=-1.0 size=N/A time=00:10:34.72 bitrate=N/A speed=26.9x    
[hls @ 0x55d63b21dd40] Opening '/data/transcodes/9f63163b61b92ef96dd6b4b86ab31d7c137.ts' for writing
[hls @ 0x55d63b21dd40] Opening '/data/transcodes/9f63163b61b92ef96dd6b4b86ab31d7c138.ts' for writing
frame=16139 fps=671 q=-1.0 size=N/A time=00:10:45.66 bitrate=N/A speed=26.8x    
[hls @ 0x55d63b21dd40] Opening '/data/transcodes/9f63163b61b92ef96dd6b4b86ab31d7c139.ts' for writing
[hls @ 0x55d63b21dd40] Opening '/data/transcodes/9f63163b61b92ef96dd6b4b86ab31d7c140.ts' for writing
[hls @ 0x55d63b21dd40] Opening '/data/transcodes/9f63163b61b92ef96dd6b4b86ab31d7c141.ts' for writing
frame=16525 fps=673 q=-1.0 size=N/A time=00:11:01.06 bitrate=N/A speed=26.9x    
[hls @ 0x55d63b21dd40] Opening '/data/transcodes/9f63163b61b92ef96dd6b4b86ab31d7c142.ts' for writing
[hls @ 0x55d63b21dd40] Opening '/data/transcodes/9f63163b61b92ef96dd6b4b86ab31d7c143.ts' for writing
frame=16847 fps=672 q=-1.0 size=N/A time=00:11:13.95 bitrate=N/A speed=26.9x    
[hls @ 0x55d63b21dd40] Opening '/data/transcodes/9f63163b61b92ef96dd6b4b86ab31d7c144.ts' for writing
frame=17075 fps=668 q=-1.0 size=N/A time=00:11:23.04 bitrate=N/A speed=26.7x    
[hls @ 0x55d63b21dd40] Opening '/data/transcodes/9f63163b61b92ef96dd6b4b86ab31d7c145.ts' for writing
[hls @ 0x55d63b21dd40] Opening '/data/transcodes/9f63163b61b92ef96dd6b4b86ab31d7c146.ts' for writing
frame=17361 fps=666 q=-1.0 size=N/A time=00:11:34.73 bitrate=N/A speed=26.6x    
[hls @ 0x55d63b21dd40] Opening '/data/transcodes/9f63163b61b92ef96dd6b4b86ab31d7c147.ts' for writing
[hls @ 0x55d63b21dd40] Opening '/data/transcodes/9f63163b61b92ef96dd6b4b86ab31d7c148.ts' for writing
[hls @ 0x55d63b21dd40] Opening '/data/transcodes/9f63163b61b92ef96dd6b4b86ab31d7c149.ts' for writing
frame=17725 fps=667 q=-1.0 size=N/A time=00:11:49.13 bitrate=N/A speed=26.7x    
[hls @ 0x55d63b21dd40] Opening '/data/transcodes/9f63163b61b92ef96dd6b4b86ab31d7c150.ts' for writing
[hls @ 0x55d63b21dd40] Opening '/data/transcodes/9f63163b61b92ef96dd6b4b86ab31d7c151.ts' for writing
[hls @ 0x55d63b21dd40] Opening '/data/transcodes/9f63163b61b92ef96dd6b4b86ab31d7c152.ts' for writing
frame=18276 fps=675 q=-1.0 size=N/A time=00:12:11.14 bitrate=N/A speed=  27x    
[hls @ 0x55d63b21dd40] Opening '/data/transcodes/9f63163b61b92ef96dd6b4b86ab31d7c153.ts' for writing
[hls @ 0x55d63b21dd40] Opening '/data/transcodes/9f63163b61b92ef96dd6b4b86ab31d7c154.ts' for writing
[hls @ 0x55d63b21dd40] Opening '/data/transcodes/9f63163b61b92ef96dd6b4b86ab31d7c155.ts' for writing
[hls @ 0x55d63b21dd40] Opening '/data/transcodes/9f63163b61b92ef96dd6b4b86ab31d7c156.ts' for writing
frame=18763 fps=681 q=-1.0 size=N/A time=00:12:30.60 bitrate=N/A speed=27.2x    
[hls @ 0x55d63b21dd40] Opening '/data/transcodes/9f63163b61b92ef96dd6b4b86ab31d7c157.ts' for writing
[hls @ 0x55d63b21dd40] Opening '/data/transcodes/9f63163b61b92ef96dd6b4b86ab31d7c158.ts' for writing
frame=19187 fps=684 q=-1.0 size=N/A time=00:12:47.62 bitrate=N/A speed=27.3x    
[hls @ 0x55d63b21dd40] Opening '/data/transcodes/9f63163b61b92ef96dd6b4b86ab31d7c159.ts' for writing
[hls @ 0x55d63b21dd40] Opening '/data/transcodes/9f63163b61b92ef96dd6b4b86ab31d7c160.ts' for writing
[hls @ 0x55d63b21dd40] Opening '/data/transcodes/9f63163b61b92ef96dd6b4b86ab31d7c161.ts' for writing
frame=19648 fps=688 q=-1.0 size=N/A time=00:13:05.95 bitrate=N/A speed=27.5x    
[hls @ 0x55d63b21dd40] Opening '/data/transcodes/9f63163b61b92ef96dd6b4b86ab31d7c162.ts' for writing
[hls @ 0x55d63b21dd40] Opening '/data/transcodes/9f63163b61b92ef96dd6b4b86ab31d7c163.ts' for writing
[hls @ 0x55d63b21dd40] Opening '/data/transcodes/9f63163b61b92ef96dd6b4b86ab31d7c164.ts' for writing
frame=20011 fps=688 q=-1.0 size=N/A time=00:13:20.48 bitrate=N/A speed=27.5x    
[hls @ 0x55d63b21dd40] Opening '/data/transcodes/9f63163b61b92ef96dd6b4b86ab31d7c165.ts' for writing
[hls @ 0x55d63b21dd40] Opening '/data/transcodes/9f63163b61b92ef96dd6b4b86ab31d7c166.ts' for writing
frame=20305 fps=687 q=-1.0 size=N/A time=00:13:32.30 bitrate=N/A speed=27.5x    
[hls @ 0x55d63b21dd40] Opening '/data/transcodes/9f63163b61b92ef96dd6b4b86ab31d7c167.ts' for writing
[hls @ 0x55d63b21dd40] Opening '/data/transcodes/9f63163b61b92ef96dd6b4b86ab31d7c168.ts' for writing
frame=20682 fps=688 q=-1.0 size=N/A time=00:13:47.27 bitrate=N/A speed=27.5x    
[hls @ 0x55d63b21dd40] Opening '/data/transcodes/9f63163b61b92ef96dd6b4b86ab31d7c169.ts' for writing
[hls @ 0x55d63b21dd40] Opening '/data/transcodes/9f63163b61b92ef96dd6b4b86ab31d7c170.ts' for writing
frame=20901 fps=684 q=-1.0 size=N/A time=00:13:56.19 bitrate=N/A speed=27.3x    
[hls @ 0x55d63b21dd40] Opening '/data/transcodes/9f63163b61b92ef96dd6b4b86ab31d7c171.ts' for writing
[hls @ 0x55d63b21dd40] Opening '/data/transcodes/9f63163b61b92ef96dd6b4b86ab31d7c172.ts' for writing
[hls @ 0x55d63b21dd40] Opening '/data/transcodes/9f63163b61b92ef96dd6b4b86ab31d7c173.ts' for writing
frame=21344 fps=687 q=-1.0 size=N/A time=00:14:13.83 bitrate=N/A speed=27.5x    
[hls @ 0x55d63b21dd40] Opening '/data/transcodes/9f63163b61b92ef96dd6b4b86ab31d7c174.ts' for writing
[hls @ 0x55d63b21dd40] Opening '/data/transcodes/9f63163b61b92ef96dd6b4b86ab31d7c175.ts' for writing
frame=21694 fps=687 q=-1.0 size=N/A time=00:14:27.93 bitrate=N/A speed=27.5x    
[hls @ 0x55d63b21dd40] Opening '/data/transcodes/9f63163b61b92ef96dd6b4b86ab31d7c176.ts' for writing
[hls @ 0x55d63b21dd40] Opening '/data/transcodes/9f63163b61b92ef96dd6b4b86ab31d7c177.ts' for writing
[hls @ 0x55d63b21dd40] Opening '/data/transcodes/9f63163b61b92ef96dd6b4b86ab31d7c178.ts' for writing
frame=22075 fps=688 q=-1.0 size=N/A time=00:14:43.08 bitrate=N/A speed=27.5x    
[hls @ 0x55d63b21dd40] Opening '/data/transcodes/9f63163b61b92ef96dd6b4b86ab31d7c179.ts' for writing
[hls @ 0x55d63b21dd40] Opening '/data/transcodes/9f63163b61b92ef96dd6b4b86ab31d7c180.ts' for writing
[hls @ 0x55d63b21dd40] Opening '/data/transcodes/9f63163b61b92ef96dd6b4b86ab31d7c181.ts' for writing
frame=22542 fps=692 q=-1.0 size=N/A time=00:15:01.66 bitrate=N/A speed=27.7x    
[hls @ 0x55d63b21dd40] Opening '/data/transcodes/9f63163b61b92ef96dd6b4b86ab31d7c182.ts' for writing
[hls @ 0x55d63b21dd40] Opening '/data/transcodes/9f63163b61b92ef96dd6b4b86ab31d7c183.ts' for writing
[hls @ 0x55d63b21dd40] Opening '/data/transcodes/9f63163b61b92ef96dd6b4b86ab31d7c184.ts' for writing
frame=22967 fps=694 q=-1.0 size=N/A time=00:15:18.94 bitrate=N/A speed=27.8x    
[hls @ 0x55d63b21dd40] Opening '/data/transcodes/9f63163b61b92ef96dd6b4b86ab31d7c185.ts' for writing
[hls @ 0x55d63b21dd40] Opening '/data/transcodes/9f63163b61b92ef96dd6b4b86ab31d7c186.ts' for writing
frame=23301 fps=694 q=-1.0 size=N/A time=00:15:32.10 bitrate=N/A speed=27.8x    
[hls @ 0x55d63b21dd40] Opening '/data/transcodes/9f63163b61b92ef96dd6b4b86ab31d7c187.ts' for writing
[hls @ 0x55d63b21dd40] Opening '/data/transcodes/9f63163b61b92ef96dd6b4b86ab31d7c188.ts' for writing
frame=23632 fps=693 q=-1.0 size=N/A time=00:15:45.44 bitrate=N/A speed=27.7x    
[hls @ 0x55d63b21dd40] Opening '/data/transcodes/9f63163b61b92ef96dd6b4b86ab31d7c189.ts' for writing
[hls @ 0x55d63b21dd40] Opening '/data/transcodes/9f63163b61b92ef96dd6b4b86ab31d7c190.ts' for writing
[hls @ 0x55d63b21dd40] Opening '/data/transcodes/9f63163b61b92ef96dd6b4b86ab31d7c191.ts' for writing
frame=24052 fps=696 q=-1.0 size=N/A time=00:16:02.21 bitrate=N/A speed=27.8x    
[hls @ 0x55d63b21dd40] Opening '/data/transcodes/9f63163b61b92ef96dd6b4b86ab31d7c192.ts' for writing
[hls @ 0x55d63b21dd40] Opening '/data/transcodes/9f63163b61b92ef96dd6b4b86ab31d7c193.ts' for writing
[hls @ 0x55d63b21dd40] Opening '/data/transcodes/9f63163b61b92ef96dd6b4b86ab31d7c194.ts' for writing
frame=24451 fps=697 q=-1.0 size=N/A time=00:16:18.01 bitrate=N/A speed=27.9x    
[hls @ 0x55d63b21dd40] Opening '/data/transcodes/9f63163b61b92ef96dd6b4b86ab31d7c195.ts' for writing
[hls @ 0x55d63b21dd40] Opening '/data/transcodes/9f63163b61b92ef96dd6b4b86ab31d7c196.ts' for writing
frame=24804 fps=697 q=-1.0 size=N/A time=00:16:32.41 bitrate=N/A speed=27.9x    
[hls @ 0x55d63b21dd40] Opening '/data/transcodes/9f63163b61b92ef96dd6b4b86ab31d7c197.ts' for writing
[hls @ 0x55d63b21dd40] Opening '/data/transcodes/9f63163b61b92ef96dd6b4b86ab31d7c198.ts' for writing
frame=25151 fps=697 q=-1.0 size=N/A time=00:16:46.02 bitrate=N/A speed=27.9x    
[hls @ 0x55d63b21dd40] Opening '/data/transcodes/9f63163b61b92ef96dd6b4b86ab31d7c199.ts' for writing
[hls @ 0x55d63b21dd40] Opening '/data/transcodes/9f63163b61b92ef96dd6b4b86ab31d7c200.ts' for writing
[hls @ 0x55d63b21dd40] Opening '/data/transcodes/9f63163b61b92ef96dd6b4b86ab31d7c201.ts' for writing
frame=25505 fps=697 q=-1.0 size=N/A time=00:17:00.32 bitrate=N/A speed=27.9x    
[hls @ 0x55d63b21dd40] Opening '/data/transcodes/9f63163b61b92ef96dd6b4b86ab31d7c202.ts' for writing
[hls @ 0x55d63b21dd40] Opening '/data/transcodes/9f63163b61b92ef96dd6b4b86ab31d7c203.ts' for writing
frame=25851 fps=697 q=-1.0 size=N/A time=00:17:14.12 bitrate=N/A speed=27.9x    
[hls @ 0x55d63b21dd40] Opening '/data/transcodes/9f63163b61b92ef96dd6b4b86ab31d7c204.ts' for writing
[hls @ 0x55d63b21dd40] Opening '/data/transcodes/9f63163b61b92ef96dd6b4b86ab31d7c205.ts' for writing
frame=26225 fps=698 q=-1.0 size=N/A time=00:17:29.25 bitrate=N/A speed=27.9x    
[hls @ 0x55d63b21dd40] Opening '/data/transcodes/9f63163b61b92ef96dd6b4b86ab31d7c206.ts' for writing
[hls @ 0x55d63b21dd40] Opening '/data/transcodes/9f63163b61b92ef96dd6b4b86ab31d7c207.ts' for writing
[hls @ 0x55d63b21dd40] Opening '/data/transcodes/9f63163b61b92ef96dd6b4b86ab31d7c208.ts' for writing
frame=26651 fps=700 q=-1.0 size=N/A time=00:17:46.14 bitrate=N/A speed=  28x    
[hls @ 0x55d63b21dd40] Opening '/data/transcodes/9f63163b61b92ef96dd6b4b86ab31d7c209.ts' for writing
[hls @ 0x55d63b21dd40] Opening '/data/transcodes/9f63163b61b92ef96dd6b4b86ab31d7c210.ts' for writing
[hls @ 0x55d63b21dd40] Opening '/data/transcodes/9f63163b61b92ef96dd6b4b86ab31d7c211.ts' for writing
frame=27001 fps=700 q=-1.0 size=N/A time=00:18:00.22 bitrate=N/A speed=  28x    
[hls @ 0x55d63b21dd40] Opening '/data/transcodes/9f63163b61b92ef96dd6b4b86ab31d7c212.ts' for writing
[hls @ 0x55d63b21dd40] Opening '/data/transcodes/9f63163b61b92ef96dd6b4b86ab31d7c213.ts' for writing
frame=27318 fps=699 q=-1.0 size=N/A time=00:18:12.83 bitrate=N/A speed=  28x    
[hls @ 0x55d63b21dd40] Opening '/data/transcodes/9f63163b61b92ef96dd6b4b86ab31d7c214.ts' for writing
[hls @ 0x55d63b21dd40] Opening '/data/transcodes/9f63163b61b92ef96dd6b4b86ab31d7c215.ts' for writing
frame=27604 fps=697 q=-1.0 size=N/A time=00:18:24.46 bitrate=N/A speed=27.9x    
[hls @ 0x55d63b21dd40] Opening '/data/transcodes/9f63163b61b92ef96dd6b4b86ab31d7c216.ts' for writing
[hls @ 0x55d63b21dd40] Opening '/data/transcodes/9f63163b61b92ef96dd6b4b86ab31d7c217.ts' for writing
frame=27927 fps=697 q=-1.0 size=N/A time=00:18:37.06 bitrate=N/A speed=27.9x    
[hls @ 0x55d63b21dd40] Opening '/data/transcodes/9f63163b61b92ef96dd6b4b86ab31d7c218.ts' for writing
[hls @ 0x55d63b21dd40] Opening '/data/transcodes/9f63163b61b92ef96dd6b4b86ab31d7c219.ts' for writing
frame=28212 fps=695 q=-1.0 size=N/A time=00:18:48.73 bitrate=N/A speed=27.8x    
[hls @ 0x55d63b21dd40] Opening '/data/transcodes/9f63163b61b92ef96dd6b4b86ab31d7c220.ts' for writing
[hls @ 0x55d63b21dd40] Opening '/data/transcodes/9f63163b61b92ef96dd6b4b86ab31d7c221.ts' for writing
frame=28525 fps=694 q=-1.0 size=N/A time=00:19:01.26 bitrate=N/A speed=27.8x    
[hls @ 0x55d63b21dd40] Opening '/data/transcodes/9f63163b61b92ef96dd6b4b86ab31d7c222.ts' for writing
[hls @ 0x55d63b21dd40] Opening '/data/transcodes/9f63163b61b92ef96dd6b4b86ab31d7c223.ts' for writing
frame=28917 fps=695 q=-1.0 size=N/A time=00:19:16.74 bitrate=N/A speed=27.8x    
[hls @ 0x55d63b21dd40] Opening '/data/transcodes/9f63163b61b92ef96dd6b4b86ab31d7c224.ts' for writing
[hls @ 0x55d63b21dd40] Opening '/data/transcodes/9f63163b61b92ef96dd6b4b86ab31d7c225.ts' for writing
[hls @ 0x55d63b21dd40] Opening '/data/transcodes/9f63163b61b92ef96dd6b4b86ab31d7c226.ts' for writing
frame=29279 fps=696 q=-1.0 size=N/A time=00:19:31.23 bitrate=N/A speed=27.8x    
[hls @ 0x55d63b21dd40] Opening '/data/transcodes/9f63163b61b92ef96dd6b4b86ab31d7c227.ts' for writing
[hls @ 0x55d63b21dd40] Opening '/data/transcodes/9f63163b61b92ef96dd6b4b86ab31d7c228.ts' for writing
frame=29605 fps=695 q=-1.0 size=N/A time=00:19:44.48 bitrate=N/A speed=27.8x    
[hls @ 0x55d63b21dd40] Opening '/data/transcodes/9f63163b61b92ef96dd6b4b86ab31d7c229.ts' for writing
[hls @ 0x55d63b21dd40] Opening '/data/transcodes/9f63163b61b92ef96dd6b4b86ab31d7c230.ts' for writing
[hls @ 0x55d63b21dd40] Opening '/data/transcodes/9f63163b61b92ef96dd6b4b86ab31d7c231.ts' for writing
frame=30075 fps=698 q=-1.0 size=N/A time=00:20:03.08 bitrate=N/A speed=27.9x    
[hls @ 0x55d63b21dd40] Opening '/data/transcodes/9f63163b61b92ef96dd6b4b86ab31d7c232.ts' for writing
[hls @ 0x55d63b21dd40] Opening '/data/transcodes/9f63163b61b92ef96dd6b4b86ab31d7c233.ts' for writing
[hls @ 0x55d63b21dd40] Opening '/data/transcodes/9f63163b61b92ef96dd6b4b86ab31d7c234.ts' for writing
frame=30470 fps=699 q=-1.0 size=N/A time=00:20:18.91 bitrate=N/A speed=  28x    
[hls @ 0x55d63b21dd40] Opening '/data/transcodes/9f63163b61b92ef96dd6b4b86ab31d7c235.ts' for writing
[hls @ 0x55d63b21dd40] Opening '/data/transcodes/9f63163b61b92ef96dd6b4b86ab31d7c236.ts' for writing
frame=30854 fps=700 q=-1.0 size=N/A time=00:20:34.31 bitrate=N/A speed=  28x    
[hls @ 0x55d63b21dd40] Opening '/data/transcodes/9f63163b61b92ef96dd6b4b86ab31d7c237.ts' for writing
[hls @ 0x55d63b21dd40] Opening '/data/transcodes/9f63163b61b92ef96dd6b4b86ab31d7c238.ts' for writing
[hls @ 0x55d63b21dd40] Opening '/data/transcodes/9f63163b61b92ef96dd6b4b86ab31d7c239.ts' for writing
frame=31247 fps=701 q=-1.0 size=N/A time=00:20:49.95 bitrate=N/A speed=  28x    
[hls @ 0x55d63b21dd40] Opening '/data/transcodes/9f63163b61b92ef96dd6b4b86ab31d7c240.ts' for writing
[hls @ 0x55d63b21dd40] Opening '/data/transcodes/9f63163b61b92ef96dd6b4b86ab31d7c241.ts' for writing
frame=31531 fps=699 q=-1.0 size=N/A time=00:21:01.32 bitrate=N/A speed=  28x    
[hls @ 0x55d63b21dd40] Opening '/data/transcodes/9f63163b61b92ef96dd6b4b86ab31d7c242.ts' for writing
[hls @ 0x55d63b21dd40] Opening '/data/transcodes/9f63163b61b92ef96dd6b4b86ab31d7c243.ts' for writing
frame=31882 fps=699 q=-1.0 size=N/A time=00:21:15.49 bitrate=N/A speed=  28x    
[hls @ 0x55d63b21dd40] Opening '/data/transcodes/9f63163b61b92ef96dd6b4b86ab31d7c244.ts' for writing
[hls @ 0x55d63b21dd40] Opening '/data/transcodes/9f63163b61b92ef96dd6b4b86ab31d7c245.ts' for writing
frame=32222 fps=699 q=-1.0 size=N/A time=00:21:28.99 bitrate=N/A speed=  28x    
[hls @ 0x55d63b21dd40] Opening '/data/transcodes/9f63163b61b92ef96dd6b4b86ab31d7c246.ts' for writing
[hls @ 0x55d63b21dd40] Opening '/data/transcodes/9f63163b61b92ef96dd6b4b86ab31d7c247.ts' for writing
[hls @ 0x55d63b21dd40] Opening '/data/transcodes/9f63163b61b92ef96dd6b4b86ab31d7c248.ts' for writing
frame=32601 fps=700 q=-1.0 size=N/A time=00:21:44.20 bitrate=N/A speed=  28x    
[hls @ 0x55d63b21dd40] Opening '/data/transcodes/9f63163b61b92ef96dd6b4b86ab31d7c249.ts' for writing
[hls @ 0x55d63b21dd40] Opening '/data/transcodes/9f63163b61b92ef96dd6b4b86ab31d7c250.ts' for writing
[hls @ 0x55d63b21dd40] Opening '/data/transcodes/9f63163b61b92ef96dd6b4b86ab31d7c251.ts' for writing
frame=33061 fps=702 q=-1.0 size=N/A time=00:22:02.57 bitrate=N/A speed=28.1x    
[hls @ 0x55d63b21dd40] Opening '/data/transcodes/9f63163b61b92ef96dd6b4b86ab31d7c252.ts' for writing
[hls @ 0x55d63b21dd40] Opening '/data/transcodes/9f63163b61b92ef96dd6b4b86ab31d7c253.ts' for writing
[hls @ 0x55d63b21dd40] Opening '/data/transcodes/9f63163b61b92ef96dd6b4b86ab31d7c254.ts' for writing
frame=33581 fps=706 q=-1.0 size=N/A time=00:22:23.37 bitrate=N/A speed=28.2x    
[hls @ 0x55d63b21dd40] Opening '/data/transcodes/9f63163b61b92ef96dd6b4b86ab31d7c255.ts' for writing
[hls @ 0x55d63b21dd40] Opening '/data/transcodes/9f63163b61b92ef96dd6b4b86ab31d7c256.ts' for writing
[hls @ 0x55d63b21dd40] Opening '/data/transcodes/9f63163b61b92ef96dd6b4b86ab31d7c257.ts' for writing
frame=33956 fps=706 q=-1.0 size=N/A time=00:22:38.47 bitrate=N/A speed=28.2x    
[hls @ 0x55d63b21dd40] Opening '/data/transcodes/9f63163b61b92ef96dd6b4b86ab31d7c258.ts' for writing
[hls @ 0x55d63b21dd40] Opening '/data/transcodes/9f63163b61b92ef96dd6b4b86ab31d7c259.ts' for writing
[hls @ 0x55d63b21dd40] Opening '/data/transcodes/9f63163b61b92ef96dd6b4b86ab31d7c260.ts' for writing
frame=34388 fps=708 q=-1.0 size=N/A time=00:22:55.69 bitrate=N/A speed=28.3x    
[hls @ 0x55d63b21dd40] Opening '/data/transcodes/9f63163b61b92ef96dd6b4b86ab31d7c261.ts' for writing
[hls @ 0x55d63b21dd40] Opening '/data/transcodes/9f63163b61b92ef96dd6b4b86ab31d7c262.ts' for writing
frame=34776 fps=708 q=-1.0 size=N/A time=00:23:11.11 bitrate=N/A speed=28.3x    
[hls @ 0x55d63b21dd40] Opening '/data/transcodes/9f63163b61b92ef96dd6b4b86ab31d7c263.ts' for writing
[hls @ 0x55d63b21dd40] Opening '/data/transcodes/9f63163b61b92ef96dd6b4b86ab31d7c264.ts' for writing
[hls @ 0x55d63b21dd40] Opening '/data/transcodes/9f63163b61b92ef96dd6b4b86ab31d7c265.ts' for writing
frame=35183 fps=709 q=-1.0 size=N/A time=00:23:27.50 bitrate=N/A speed=28.4x    
[hls @ 0x55d63b21dd40] Opening '/data/transcodes/9f63163b61b92ef96dd6b4b86ab31d7c266.ts' for writing
[hls @ 0x55d63b21dd40] Opening '/data/transcodes/9f63163b61b92ef96dd6b4b86ab31d7c267.ts' for writing
[hls @ 0x55d63b21dd40] Opening '/data/transcodes/9f63163b61b92ef96dd6b4b86ab31d7c268.ts' for writing
frame=35593 fps=711 q=-1.0 size=N/A time=00:23:43.77 bitrate=N/A speed=28.4x    
[hls @ 0x55d63b21dd40] Opening '/data/transcodes/9f63163b61b92ef96dd6b4b86ab31d7c269.ts' for writing
[hls @ 0x55d63b21dd40] Opening '/data/transcodes/9f63163b61b92ef96dd6b4b86ab31d7c270.ts' for writing
frame=35936 fps=710 q=-1.0 size=N/A time=00:23:57.73 bitrate=N/A speed=28.4x    
[hls @ 0x55d63b21dd40] Opening '/data/transcodes/9f63163b61b92ef96dd6b4b86ab31d7c271.ts' for writing
[hls @ 0x55d63b21dd40] Opening '/data/transcodes/9f63163b61b92ef96dd6b4b86ab31d7c272.ts' for writing
[hls @ 0x55d63b21dd40] Opening '/data/transcodes/9f63163b61b92ef96dd6b4b86ab31d7c273.ts' for writing
frame=36351 fps=711 q=-1.0 size=N/A time=00:24:14.02 bitrate=N/A speed=28.5x    
[hls @ 0x55d63b21dd40] Opening '/data/transcodes/9f63163b61b92ef96dd6b4b86ab31d7c274.ts' for writing
[hls @ 0x55d63b21dd40] Opening '/data/transcodes/9f63163b61b92ef96dd6b4b86ab31d7c275.ts' for writing
[hls @ 0x55d63b21dd40] Opening '/data/transcodes/9f63163b61b92ef96dd6b4b86ab31d7c276.ts' for writing
frame=36783 fps=713 q=-1.0 size=N/A time=00:24:31.39 bitrate=N/A speed=28.5x    
[hls @ 0x55d63b21dd40] Opening '/data/transcodes/9f63163b61b92ef96dd6b4b86ab31d7c277.ts' for writing
[hls @ 0x55d63b21dd40] Opening '/data/transcodes/9f63163b61b92ef96dd6b4b86ab31d7c278.ts' for writing
[hls @ 0x55d63b21dd40] Opening '/data/transcodes/9f63163b61b92ef96dd6b4b86ab31d7c279.ts' for writing
frame=37239 fps=715 q=-1.0 size=N/A time=00:24:49.67 bitrate=N/A speed=28.6x    
[hls @ 0x55d63b21dd40] Opening '/data/transcodes/9f63163b61b92ef96dd6b4b86ab31d7c280.ts' for writing
[hls @ 0x55d63b21dd40] Opening '/data/transcodes/9f63163b61b92ef96dd6b4b86ab31d7c281.ts' for writing
frame=37501 fps=713 q=-1.0 size=N/A time=00:25:00.00 bitrate=N/A speed=28.5x    
[hls @ 0x55d63b21dd40] Opening '/data/transcodes/9f63163b61b92ef96dd6b4b86ab31d7c282.ts' for writing
[hls @ 0x55d63b21dd40] Opening '/data/transcodes/9f63163b61b92ef96dd6b4b86ab31d7c283.ts' for writing
frame=37818 fps=712 q=-1.0 size=N/A time=00:25:12.93 bitrate=N/A speed=28.5x    
[hls @ 0x55d63b21dd40] Opening '/data/transcodes/9f63163b61b92ef96dd6b4b86ab31d7c284.ts' for writing
[hls @ 0x55d63b21dd40] Opening '/data/transcodes/9f63163b61b92ef96dd6b4b86ab31d7c285.ts' for writing
frame=38138 fps=711 q=-1.0 size=N/A time=00:25:25.60 bitrate=N/A speed=28.5x    
[hls @ 0x55d63b21dd40] Opening '/data/transcodes/9f63163b61b92ef96dd6b4b86ab31d7c286.ts' for writing
[hls @ 0x55d63b21dd40] Opening '/data/transcodes/9f63163b61b92ef96dd6b4b86ab31d7c287.ts' for writing
frame=38527 fps=712 q=-1.0 size=N/A time=00:25:41.06 bitrate=N/A speed=28.5x    
[hls @ 0x55d63b21dd40] Opening '/data/transcodes/9f63163b61b92ef96dd6b4b86ab31d7c288.ts' for writing
[hls @ 0x55d63b21dd40] Opening '/data/transcodes/9f63163b61b92ef96dd6b4b86ab31d7c289.ts' for writing
[hls @ 0x55d63b21dd40] Opening '/data/transcodes/9f63163b61b92ef96dd6b4b86ab31d7c290.ts' for writing
frame=38982 fps=714 q=-1.0 size=N/A time=00:25:59.39 bitrate=N/A speed=28.6x    
[hls @ 0x55d63b21dd40] Opening '/data/transcodes/9f63163b61b92ef96dd6b4b86ab31d7c291.ts' for writing
[hls @ 0x55d63b21dd40] Opening '/data/transcodes/9f63163b61b92ef96dd6b4b86ab31d7c292.ts' for writing
[hls @ 0x55d63b21dd40] Opening '/data/transcodes/9f63163b61b92ef96dd6b4b86ab31d7c293.ts' for writing
frame=39393 fps=715 q=-1.0 size=N/A time=00:26:15.84 bitrate=N/A speed=28.6x    
[hls @ 0x55d63b21dd40] Opening '/data/transcodes/9f63163b61b92ef96dd6b4b86ab31d7c294.ts' for writing
[hls @ 0x55d63b21dd40] Opening '/data/transcodes/9f63163b61b92ef96dd6b4b86ab31d7c295.ts' for writing
frame=39651 fps=713 q=-1.0 size=N/A time=00:26:26.01 bitrate=N/A speed=28.5x    
[hls @ 0x55d63b21dd40] Opening '/data/transcodes/9f63163b61b92ef96dd6b4b86ab31d7c296.ts' for writing
[hls @ 0x55d63b21dd40] Opening '/data/transcodes/9f63163b61b92ef96dd6b4b86ab31d7c297.ts' for writing
frame=40030 fps=713 q=-1.0 size=N/A time=00:26:41.35 bitrate=N/A speed=28.5x    
[hls @ 0x55d63b21dd40] Opening '/data/transcodes/9f63163b61b92ef96dd6b4b86ab31d7c298.ts' for writing
[hls @ 0x55d63b21dd40] Opening '/data/transcodes/9f63163b61b92ef96dd6b4b86ab31d7c299.ts' for writing
[hls @ 0x55d63b21dd40] Opening '/data/transcodes/9f63163b61b92ef96dd6b4b86ab31d7c300.ts' for writing
frame=40375 fps=713 q=-1.0 size=N/A time=00:26:55.05 bitrate=N/A speed=28.5x    
[hls @ 0x55d63b21dd40] Opening '/data/transcodes/9f63163b61b92ef96dd6b4b86ab31d7c301.ts' for writing
[hls @ 0x55d63b21dd40] Opening '/data/transcodes/9f63163b61b92ef96dd6b4b86ab31d7c302.ts' for writing
frame=40683 fps=712 q=-1.0 size=N/A time=00:27:07.49 bitrate=N/A speed=28.5x    
[hls @ 0x55d63b21dd40] Opening '/data/transcodes/9f63163b61b92ef96dd6b4b86ab31d7c303.ts' for writing
[hls @ 0x55d63b21dd40] Opening '/data/transcodes/9f63163b61b92ef96dd6b4b86ab31d7c304.ts' for writing
frame=41094 fps=713 q=-1.0 size=N/A time=00:27:23.81 bitrate=N/A speed=28.5x    
[hls @ 0x55d63b21dd40] Opening '/data/transcodes/9f63163b61b92ef96dd6b4b86ab31d7c305.ts' for writing
[hls @ 0x55d63b21dd40] Opening '/data/transcodes/9f63163b61b92ef96dd6b4b86ab31d7c306.ts' for writing
[hls @ 0x55d63b21dd40] Opening '/data/transcodes/9f63163b61b92ef96dd6b4b86ab31d7c307.ts' for writing
frame=41469 fps=713 q=-1.0 size=N/A time=00:27:38.95 bitrate=N/A speed=28.5x    
[hls @ 0x55d63b21dd40] Opening '/data/transcodes/9f63163b61b92ef96dd6b4b86ab31d7c308.ts' for writing
[hls @ 0x55d63b21dd40] Opening '/data/transcodes/9f63163b61b92ef96dd6b4b86ab31d7c309.ts' for writing
frame=41837 fps=714 q=-1.0 size=N/A time=00:27:53.50 bitrate=N/A speed=28.5x    
[hls @ 0x55d63b21dd40] Opening '/data/transcodes/9f63163b61b92ef96dd6b4b86ab31d7c310.ts' for writing
[hls @ 0x55d63b21dd40] Opening '/data/transcodes/9f63163b61b92ef96dd6b4b86ab31d7c311.ts' for writing
[hls @ 0x55d63b21dd40] Opening '/data/transcodes/9f63163b61b92ef96dd6b4b86ab31d7c312.ts' for writing
frame=42201 fps=714 q=-1.0 size=N/A time=00:28:08.22 bitrate=N/A speed=28.6x    
[hls @ 0x55d63b21dd40] Opening '/data/transcodes/9f63163b61b92ef96dd6b4b86ab31d7c313.ts' for writing
[hls @ 0x55d63b21dd40] Opening '/data/transcodes/9f63163b61b92ef96dd6b4b86ab31d7c314.ts' for writing
frame=42525 fps=713 q=-1.0 size=N/A time=00:28:21.09 bitrate=N/A speed=28.5x    
[hls @ 0x55d63b21dd40] Opening '/data/transcodes/9f63163b61b92ef96dd6b4b86ab31d7c315.ts' for writing
[hls @ 0x55d63b21dd40] Opening '/data/transcodes/9f63163b61b92ef96dd6b4b86ab31d7c316.ts' for writing
[hls @ 0x55d63b21dd40] Opening '/data/transcodes/9f63163b61b92ef96dd6b4b86ab31d7c317.ts' for writing
frame=42902 fps=714 q=-1.0 size=N/A time=00:28:36.23 bitrate=N/A speed=28.5x    
[hls @ 0x55d63b21dd40] Opening '/data/transcodes/9f63163b61b92ef96dd6b4b86ab31d7c318.ts' for writing
[hls @ 0x55d63b21dd40] Opening '/data/transcodes/9f63163b61b92ef96dd6b4b86ab31d7c319.ts' for writing
frame=43344 fps=715 q=-1.0 size=N/A time=00:28:53.85 bitrate=N/A speed=28.6x    
[hls @ 0x55d63b21dd40] Opening '/data/transcodes/9f63163b61b92ef96dd6b4b86ab31d7c320.ts' for writing
[hls @ 0x55d63b21dd40] Opening '/data/transcodes/9f63163b61b92ef96dd6b4b86ab31d7c321.ts' for writing
[hls @ 0x55d63b21dd40] Opening '/data/transcodes/9f63163b61b92ef96dd6b4b86ab31d7c322.ts' for writing
frame=43787 fps=716 q=-1.0 size=N/A time=00:29:11.69 bitrate=N/A speed=28.7x    
[hls @ 0x55d63b21dd40] Opening '/data/transcodes/9f63163b61b92ef96dd6b4b86ab31d7c323.ts' for writing
[hls @ 0x55d63b21dd40] Opening '/data/transcodes/9f63163b61b92ef96dd6b4b86ab31d7c324.ts' for writing
[hls @ 0x55d63b21dd40] Opening '/data/transcodes/9f63163b61b92ef96dd6b4b86ab31d7c325.ts' for writing
frame=44122 fps=716 q=-1.0 size=N/A time=00:29:25.00 bitrate=N/A speed=28.6x    
[hls @ 0x55d63b21dd40] Opening '/data/transcodes/9f63163b61b92ef96dd6b4b86ab31d7c326.ts' for writing
[hls @ 0x55d63b21dd40] Opening '/data/transcodes/9f63163b61b92ef96dd6b4b86ab31d7c327.ts' for writing
frame=44493 fps=716 q=-1.0 size=N/A time=00:29:39.81 bitrate=N/A speed=28.6x    
[hls @ 0x55d63b21dd40] Opening '/data/transcodes/9f63163b61b92ef96dd6b4b86ab31d7c328.ts' for writing
[hls @ 0x55d63b21dd40] Opening '/data/transcodes/9f63163b61b92ef96dd6b4b86ab31d7c329.ts' for writing
frame=44789 fps=715 q=-1.0 size=N/A time=00:29:51.62 bitrate=N/A speed=28.6x    
[hls @ 0x55d63b21dd40] Opening '/data/transcodes/9f63163b61b92ef96dd6b4b86ab31d7c330.ts' for writing
[hls @ 0x55d63b21dd40] Opening '/data/transcodes/9f63163b61b92ef96dd6b4b86ab31d7c331.ts' for writing
[hls @ 0x55d63b21dd40] Opening '/data/transcodes/9f63163b61b92ef96dd6b4b86ab31d7c332.ts' for writing
frame=45212 fps=716 q=-1.0 size=N/A time=00:30:08.58 bitrate=N/A speed=28.6x    
[hls @ 0x55d63b21dd40] Opening '/data/transcodes/9f63163b61b92ef96dd6b4b86ab31d7c333.ts' for writing
[hls @ 0x55d63b21dd40] Opening '/data/transcodes/9f63163b61b92ef96dd6b4b86ab31d7c334.ts' for writing
frame=45585 fps=716 q=-1.0 size=N/A time=00:30:23.52 bitrate=N/A speed=28.7x    
[hls @ 0x55d63b21dd40] Opening '/data/transcodes/9f63163b61b92ef96dd6b4b86ab31d7c335.ts' for writing
[hls @ 0x55d63b21dd40] Opening '/data/transcodes/9f63163b61b92ef96dd6b4b86ab31d7c336.ts' for writing
frame=45886 fps=715 q=-1.0 size=N/A time=00:30:35.61 bitrate=N/A speed=28.6x    
[hls @ 0x55d63b21dd40] Opening '/data/transcodes/9f63163b61b92ef96dd6b4b86ab31d7c337.ts' for writing
[hls @ 0x55d63b21dd40] Opening '/data/transcodes/9f63163b61b92ef96dd6b4b86ab31d7c338.ts' for writing
[hls @ 0x55d63b21dd40] Opening '/data/transcodes/9f63163b61b92ef96dd6b4b86ab31d7c339.ts' for writing
frame=46319 fps=717 q=-1.0 size=N/A time=00:30:52.94 bitrate=N/A speed=28.7x    
[hls @ 0x55d63b21dd40] Opening '/data/transcodes/9f63163b61b92ef96dd6b4b86ab31d7c340.ts' for writing
[hls @ 0x55d63b21dd40] Opening '/data/transcodes/9f63163b61b92ef96dd6b4b86ab31d7c341.ts' for writing
frame=46593 fps=715 q=-1.0 size=N/A time=00:31:03.84 bitrate=N/A speed=28.6x    
[hls @ 0x55d63b21dd40] Opening '/data/transcodes/9f63163b61b92ef96dd6b4b86ab31d7c342.ts' for writing
frame=46775 fps=713 q=-1.0 size=N/A time=00:31:11.05 bitrate=N/A speed=28.5x    
[hls @ 0x55d63b21dd40] Opening '/data/transcodes/9f63163b61b92ef96dd6b4b86ab31d7c343.ts' for writing
[hls @ 0x55d63b21dd40] Opening '/data/transcodes/9f63163b61b92ef96dd6b4b86ab31d7c344.ts' for writing
[hls @ 0x55d63b21dd40] Opening '/data/transcodes/9f63163b61b92ef96dd6b4b86ab31d7c345.ts' for writing
frame=47152 fps=713 q=-1.0 size=N/A time=00:31:26.22 bitrate=N/A speed=28.5x    
[hls @ 0x55d63b21dd40] Opening '/data/transcodes/9f63163b61b92ef96dd6b4b86ab31d7c346.ts' for writing
[hls @ 0x55d63b21dd40] Opening '/data/transcodes/9f63163b61b92ef96dd6b4b86ab31d7c347.ts' for writing
frame=47454 fps=712 q=-1.0 size=N/A time=00:31:38.44 bitrate=N/A speed=28.5x    
[hls @ 0x55d63b21dd40] Opening '/data/transcodes/9f63163b61b92ef96dd6b4b86ab31d7c348.ts' for writing
[hls @ 0x55d63b21dd40] Opening '/data/transcodes/9f63163b61b92ef96dd6b4b86ab31d7c349.ts' for writing
[hls @ 0x55d63b21dd40] Opening '/data/transcodes/9f63163b61b92ef96dd6b4b86ab31d7c350.ts' for writing
frame=47857 fps=713 q=-1.0 size=N/A time=00:31:54.21 bitrate=N/A speed=28.5x    
[hls @ 0x55d63b21dd40] Opening '/data/transcodes/9f63163b61b92ef96dd6b4b86ab31d7c351.ts' for writing
[hls @ 0x55d63b21dd40] Opening '/data/transcodes/9f63163b61b92ef96dd6b4b86ab31d7c352.ts' for writing
[hls @ 0x55d63b21dd40] Opening '/data/transcodes/9f63163b61b92ef96dd6b4b86ab31d7c353.ts' for writing
frame=48301 fps=714 q=-1.0 size=N/A time=00:32:12.00 bitrate=N/A speed=28.6x    
[hls @ 0x55d63b21dd40] Opening '/data/transcodes/9f63163b61b92ef96dd6b4b86ab31d7c354.ts' for writing
[hls @ 0x55d63b21dd40] Opening '/data/transcodes/9f63163b61b92ef96dd6b4b86ab31d7c355.ts' for writing
frame=48680 fps=714 q=-1.0 size=N/A time=00:32:27.49 bitrate=N/A speed=28.6x    
[hls @ 0x55d63b21dd40] Opening '/data/transcodes/9f63163b61b92ef96dd6b4b86ab31d7c356.ts' for writing
[hls @ 0x55d63b21dd40] Opening '/data/transcodes/9f63163b61b92ef96dd6b4b86ab31d7c357.ts' for writing
[hls @ 0x55d63b21dd40] Opening '/data/transcodes/9f63163b61b92ef96dd6b4b86ab31d7c358.ts' for writing
frame=49084 fps=715 q=-1.0 size=N/A time=00:32:43.49 bitrate=N/A speed=28.6x    
[hls @ 0x55d63b21dd40] Opening '/data/transcodes/9f63163b61b92ef96dd6b4b86ab31d7c359.ts' for writing
[hls @ 0x55d63b21dd40] Opening '/data/transcodes/9f63163b61b92ef96dd6b4b86ab31d7c360.ts' for writing
[hls @ 0x55d63b21dd40] Opening '/data/transcodes/9f63163b61b92ef96dd6b4b86ab31d7c361.ts' for writing
frame=49520 fps=716 q=-1.0 size=N/A time=00:33:00.83 bitrate=N/A speed=28.6x    
[hls @ 0x55d63b21dd40] Opening '/data/transcodes/9f63163b61b92ef96dd6b4b86ab31d7c362.ts' for writing
[hls @ 0x55d63b21dd40] Opening '/data/transcodes/9f63163b61b92ef96dd6b4b86ab31d7c363.ts' for writing
frame=49919 fps=717 q=-1.0 size=N/A time=00:33:16.89 bitrate=N/A speed=28.7x    
[hls @ 0x55d63b21dd40] Opening '/data/transcodes/9f63163b61b92ef96dd6b4b86ab31d7c364.ts' for writing
[hls @ 0x55d63b21dd40] Opening '/data/transcodes/9f63163b61b92ef96dd6b4b86ab31d7c365.ts' for writing
[hls @ 0x55d63b21dd40] Opening '/data/transcodes/9f63163b61b92ef96dd6b4b86ab31d7c366.ts' for writing
frame=50251 fps=716 q=-1.0 size=N/A time=00:33:30.01 bitrate=N/A speed=28.6x    
[hls @ 0x55d63b21dd40] Opening '/data/transcodes/9f63163b61b92ef96dd6b4b86ab31d7c367.ts' for writing
[hls @ 0x55d63b21dd40] Opening '/data/transcodes/9f63163b61b92ef96dd6b4b86ab31d7c368.ts' for writing
frame=50577 fps=716 q=-1.0 size=N/A time=00:33:43.24 bitrate=N/A speed=28.6x    
[hls @ 0x55d63b21dd40] Opening '/data/transcodes/9f63163b61b92ef96dd6b4b86ab31d7c369.ts' for writing
[hls @ 0x55d63b21dd40] Opening '/data/transcodes/9f63163b61b92ef96dd6b4b86ab31d7c370.ts' for writing
frame=50919 fps=715 q=-1.0 size=N/A time=00:33:56.74 bitrate=N/A speed=28.6x    
[hls @ 0x55d63b21dd40] Opening '/data/transcodes/9f63163b61b92ef96dd6b4b86ab31d7c371.ts' for writing
[hls @ 0x55d63b21dd40] Opening '/data/transcodes/9f63163b61b92ef96dd6b4b86ab31d7c372.ts' for writing
frame=51233 fps=715 q=-1.0 size=N/A time=00:34:09.48 bitrate=N/A speed=28.6x    
[hls @ 0x55d63b21dd40] Opening '/data/transcodes/9f63163b61b92ef96dd6b4b86ab31d7c373.ts' for writing
[hls @ 0x55d63b21dd40] Opening '/data/transcodes/9f63163b61b92ef96dd6b4b86ab31d7c374.ts' for writing
frame=51586 fps=715 q=-1.0 size=N/A time=00:34:23.56 bitrate=N/A speed=28.6x    
[hls @ 0x55d63b21dd40] Opening '/data/transcodes/9f63163b61b92ef96dd6b4b86ab31d7c375.ts' for writing
[hls @ 0x55d63b21dd40] Opening '/data/transcodes/9f63163b61b92ef96dd6b4b86ab31d7c376.ts' for writing
frame=51862 fps=714 q=-1.0 size=N/A time=00:34:34.59 bitrate=N/A speed=28.5x    
[hls @ 0x55d63b21dd40] Opening '/data/transcodes/9f63163b61b92ef96dd6b4b86ab31d7c377.ts' for writing
[hls @ 0x55d63b21dd40] Opening '/data/transcodes/9f63163b61b92ef96dd6b4b86ab31d7c378.ts' for writing
[hls @ 0x55d63b21dd40] Opening '/data/transcodes/9f63163b61b92ef96dd6b4b86ab31d7c379.ts' for writing
frame=52205 fps=713 q=-1.0 size=N/A time=00:34:48.46 bitrate=N/A speed=28.5x    
[hls @ 0x55d63b21dd40] Opening '/data/transcodes/9f63163b61b92ef96dd6b4b86ab31d7c380.ts' for writing
[hls @ 0x55d63b21dd40] Opening '/data/transcodes/9f63163b61b92ef96dd6b4b86ab31d7c381.ts' for writing
[hls @ 0x55d63b21dd40] Opening '/data/transcodes/9f63163b61b92ef96dd6b4b86ab31d7c382.ts' for writing
frame=52651 fps=715 q=-1.0 size=N/A time=00:35:06.18 bitrate=N/A speed=28.6x    
[hls @ 0x55d63b21dd40] Opening '/data/transcodes/9f63163b61b92ef96dd6b4b86ab31d7c383.ts' for writing
[hls @ 0x55d63b21dd40] Opening '/data/transcodes/9f63163b61b92ef96dd6b4b86ab31d7c384.ts' for writing
frame=52995 fps=714 q=-1.0 size=N/A time=00:35:19.94 bitrate=N/A speed=28.6x    
[hls @ 0x55d63b21dd40] Opening '/data/transcodes/9f63163b61b92ef96dd6b4b86ab31d7c385.ts' for writing
[hls @ 0x55d63b21dd40] Opening '/data/transcodes/9f63163b61b92ef96dd6b4b86ab31d7c386.ts' for writing
[hls @ 0x55d63b21dd40] Opening '/data/transcodes/9f63163b61b92ef96dd6b4b86ab31d7c387.ts' for writing
frame=53425 fps=715 q=-1.0 size=N/A time=00:35:37.05 bitrate=N/A speed=28.6x    
[hls @ 0x55d63b21dd40] Opening '/data/transcodes/9f63163b61b92ef96dd6b4b86ab31d7c388.ts' for writing
[hls @ 0x55d63b21dd40] Opening '/data/transcodes/9f63163b61b92ef96dd6b4b86ab31d7c389.ts' for writing
frame=53727 fps=715 q=-1.0 size=N/A time=00:35:49.06 bitrate=N/A speed=28.6x    
[hls @ 0x55d63b21dd40] Opening '/data/transcodes/9f63163b61b92ef96dd6b4b86ab31d7c390.ts' for writing
[hls @ 0x55d63b21dd40] Opening '/data/transcodes/9f63163b61b92ef96dd6b4b86ab31d7c391.ts' for writing
frame=54094 fps=715 q=-1.0 size=N/A time=00:36:03.93 bitrate=N/A speed=28.6x    
[hls @ 0x55d63b21dd40] Opening '/data/transcodes/9f63163b61b92ef96dd6b4b86ab31d7c392.ts' for writing
[hls @ 0x55d63b21dd40] Opening '/data/transcodes/9f63163b61b92ef96dd6b4b86ab31d7c393.ts' for writing
[hls @ 0x55d63b21dd40] Opening '/data/transcodes/9f63163b61b92ef96dd6b4b86ab31d7c394.ts' for writing
frame=54451 fps=715 q=-1.0 size=N/A time=00:36:18.01 bitrate=N/A speed=28.6x    
[hls @ 0x55d63b21dd40] Opening '/data/transcodes/9f63163b61b92ef96dd6b4b86ab31d7c395.ts' for writing
frame=54720 fps=714 q=-1.0 size=N/A time=00:36:28.89 bitrate=N/A speed=28.5x    
[hls @ 0x55d63b21dd40] Opening '/data/transcodes/9f63163b61b92ef96dd6b4b86ab31d7c396.ts' for writing
[hls @ 0x55d63b21dd40] Opening '/data/transcodes/9f63163b61b92ef96dd6b4b86ab31d7c397.ts' for writing
frame=55018 fps=713 q=-1.0 size=N/A time=00:36:40.84 bitrate=N/A speed=28.5x    
[hls @ 0x55d63b21dd40] Opening '/data/transcodes/9f63163b61b92ef96dd6b4b86ab31d7c398.ts' for writing
[hls @ 0x55d63b21dd40] Opening '/data/transcodes/9f63163b61b92ef96dd6b4b86ab31d7c399.ts' for writing
frame=55245 fps=711 q=-1.0 size=N/A time=00:36:49.95 bitrate=N/A speed=28.4x    
[hls @ 0x55d63b21dd40] Opening '/data/transcodes/9f63163b61b92ef96dd6b4b86ab31d7c400.ts' for writing
[hls @ 0x55d63b21dd40] Opening '/data/transcodes/9f63163b61b92ef96dd6b4b86ab31d7c401.ts' for writing
frame=55505 fps=710 q=-1.0 size=N/A time=00:37:00.45 bitrate=N/A speed=28.4x    
[hls @ 0x55d63b21dd40] Opening '/data/transcodes/9f63163b61b92ef96dd6b4b86ab31d7c402.ts' for writing
[hls @ 0x55d63b21dd40] Opening '/data/transcodes/9f63163b61b92ef96dd6b4b86ab31d7c403.ts' for writing
frame=55870 fps=710 q=-1.0 size=N/A time=00:37:14.85 bitrate=N/A speed=28.4x    
[hls @ 0x55d63b21dd40] Opening '/data/transcodes/9f63163b61b92ef96dd6b4b86ab31d7c404.ts' for writing
[hls @ 0x55d63b21dd40] Opening '/data/transcodes/9f63163b61b92ef96dd6b4b86ab31d7c405.ts' for writing
frame=56151 fps=709 q=-1.0 size=N/A time=00:37:26.09 bitrate=N/A speed=28.4x    
[hls @ 0x55d63b21dd40] Opening '/data/transcodes/9f63163b61b92ef96dd6b4b86ab31d7c406.ts' for writing
[hls @ 0x55d63b21dd40] Opening '/data/transcodes/9f63163b61b92ef96dd6b4b86ab31d7c407.ts' for writing
frame=56406 fps=708 q=-1.0 size=N/A time=00:37:36.48 bitrate=N/A speed=28.3x    
[hls @ 0x55d63b21dd40] Opening '/data/transcodes/9f63163b61b92ef96dd6b4b86ab31d7c408.ts' for writing
[hls @ 0x55d63b21dd40] Opening '/data/transcodes/9f63163b61b92ef96dd6b4b86ab31d7c409.ts' for writing
frame=56770 fps=708 q=-1.0 size=N/A time=00:37:50.88 bitrate=N/A speed=28.3x    
[hls @ 0x55d63b21dd40] Opening '/data/transcodes/9f63163b61b92ef96dd6b4b86ab31d7c410.ts' for writing
[hls @ 0x55d63b21dd40] Opening '/data/transcodes/9f63163b61b92ef96dd6b4b86ab31d7c411.ts' for writing
frame=57039 fps=707 q=-1.0 size=N/A time=00:38:01.74 bitrate=N/A speed=28.3x    
[hls @ 0x55d63b21dd40] Opening '/data/transcodes/9f63163b61b92ef96dd6b4b86ab31d7c412.ts' for writing
[hls @ 0x55d63b21dd40] Opening '/data/transcodes/9f63163b61b92ef96dd6b4b86ab31d7c413.ts' for writing
[hls @ 0x55d63b21dd40] Opening '/data/transcodes/9f63163b61b92ef96dd6b4b86ab31d7c414.ts' for writing
frame=57451 fps=708 q=-1.0 size=N/A time=00:38:18.01 bitrate=N/A speed=28.3x    
[hls @ 0x55d63b21dd40] Opening '/data/transcodes/9f63163b61b92ef96dd6b4b86ab31d7c415.ts' for writing
[hls @ 0x55d63b21dd40] Opening '/data/transcodes/9f63163b61b92ef96dd6b4b86ab31d7c416.ts' for writing
frame=57874 fps=708 q=-1.0 size=N/A time=00:38:35.10 bitrate=N/A speed=28.3x    
[hls @ 0x55d63b21dd40] Opening '/data/transcodes/9f63163b61b92ef96dd6b4b86ab31d7c417.ts' for writing
[hls @ 0x55d63b21dd40] Opening '/data/transcodes/9f63163b61b92ef96dd6b4b86ab31d7c418.ts' for writing
frame=58112 fps=707 q=-1.0 size=N/A time=00:38:44.70 bitrate=N/A speed=28.3x    
[hls @ 0x55d63b21dd40] Opening '/data/transcodes/9f63163b61b92ef96dd6b4b86ab31d7c419.ts' for writing
[hls @ 0x55d63b21dd40] Opening '/data/transcodes/9f63163b61b92ef96dd6b4b86ab31d7c420.ts' for writing
frame=58463 fps=707 q=-1.0 size=N/A time=00:38:58.59 bitrate=N/A speed=28.3x    
[hls @ 0x55d63b21dd40] Opening '/data/transcodes/9f63163b61b92ef96dd6b4b86ab31d7c421.ts' for writing
[hls @ 0x55d63b21dd40] Opening '/data/transcodes/9f63163b61b92ef96dd6b4b86ab31d7c422.ts' for writing
frame=58727 fps=706 q=-1.0 size=N/A time=00:39:09.09 bitrate=N/A speed=28.2x    
[hls @ 0x55d63b21dd40] Opening '/data/transcodes/9f63163b61b92ef96dd6b4b86ab31d7c423.ts' for writing
[hls @ 0x55d63b21dd40] Opening '/data/transcodes/9f63163b61b92ef96dd6b4b86ab31d7c424.ts' for writing
[hls @ 0x55d63b21dd40] Opening '/data/transcodes/9f63163b61b92ef96dd6b4b86ab31d7c425.ts' for writing
frame=59101 fps=706 q=-1.0 size=N/A time=00:39:24.00 bitrate=N/A speed=28.2x    
[hls @ 0x55d63b21dd40] Opening '/data/transcodes/9f63163b61b92ef96dd6b4b86ab31d7c426.ts' for writing
[hls @ 0x55d63b21dd40] Opening '/data/transcodes/9f63163b61b92ef96dd6b4b86ab31d7c427.ts' for writing
frame=59401 fps=705 q=-1.0 size=N/A time=00:39:36.22 bitrate=N/A speed=28.2x    
[hls @ 0x55d63b21dd40] Opening '/data/transcodes/9f63163b61b92ef96dd6b4b86ab31d7c428.ts' for writing
[hls @ 0x55d63b21dd40] Opening '/data/transcodes/9f63163b61b92ef96dd6b4b86ab31d7c429.ts' for writing
frame=59701 fps=705 q=-1.0 size=N/A time=00:39:48.00 bitrate=N/A speed=28.2x    
[hls @ 0x55d63b21dd40] Opening '/data/transcodes/9f63163b61b92ef96dd6b4b86ab31d7c430.ts' for writing
[hls @ 0x55d63b21dd40] Opening '/data/transcodes/9f63163b61b92ef96dd6b4b86ab31d7c431.ts' for writing
frame=60080 fps=705 q=-1.0 size=N/A time=00:40:03.49 bitrate=N/A speed=28.2x    
[hls @ 0x55d63b21dd40] Opening '/data/transcodes/9f63163b61b92ef96dd6b4b86ab31d7c432.ts' for writing
[hls @ 0x55d63b21dd40] Opening '/data/transcodes/9f63163b61b92ef96dd6b4b86ab31d7c433.ts' for writing
frame=60374 fps=704 q=-1.0 size=N/A time=00:40:15.24 bitrate=N/A speed=28.2x    
[hls @ 0x55d63b21dd40] Opening '/data/transcodes/9f63163b61b92ef96dd6b4b86ab31d7c434.ts' for writing
[hls @ 0x55d63b21dd40] Opening '/data/transcodes/9f63163b61b92ef96dd6b4b86ab31d7c435.ts' for writing
[hls @ 0x55d63b21dd40] Opening '/data/transcodes/9f63163b61b92ef96dd6b4b86ab31d7c436.ts' for writing
frame=60753 fps=705 q=-1.0 size=N/A time=00:40:30.22 bitrate=N/A speed=28.2x    
[hls @ 0x55d63b21dd40] Opening '/data/transcodes/9f63163b61b92ef96dd6b4b86ab31d7c437.ts' for writing
[hls @ 0x55d63b21dd40] Opening '/data/transcodes/9f63163b61b92ef96dd6b4b86ab31d7c438.ts' for writing
frame=61051 fps=704 q=-1.0 size=N/A time=00:40:42.18 bitrate=N/A speed=28.2x    
[hls @ 0x55d63b21dd40] Opening '/data/transcodes/9f63163b61b92ef96dd6b4b86ab31d7c439.ts' for writing
[hls @ 0x55d63b21dd40] Opening '/data/transcodes/9f63163b61b92ef96dd6b4b86ab31d7c440.ts' for writing
frame=61428 fps=704 q=-1.0 size=N/A time=00:40:57.25 bitrate=N/A speed=28.2x    
[hls @ 0x55d63b21dd40] Opening '/data/transcodes/9f63163b61b92ef96dd6b4b86ab31d7c441.ts' for writing
[hls @ 0x55d63b21dd40] Opening '/data/transcodes/9f63163b61b92ef96dd6b4b86ab31d7c442.ts' for writing
[hls @ 0x55d63b21dd40] Opening '/data/transcodes/9f63163b61b92ef96dd6b4b86ab31d7c443.ts' for writing
frame=61854 fps=705 q=-1.0 size=N/A time=00:41:14.33 bitrate=N/A speed=28.2x    
[hls @ 0x55d63b21dd40] Opening '/data/transcodes/9f63163b61b92ef96dd6b4b86ab31d7c444.ts' for writing
[hls @ 0x55d63b21dd40] Opening '/data/transcodes/9f63163b61b92ef96dd6b4b86ab31d7c445.ts' for writing
[hls @ 0x55d63b21dd40] Opening '/data/transcodes/9f63163b61b92ef96dd6b4b86ab31d7c446.ts' for writing
frame=62332 fps=707 q=-1.0 size=N/A time=00:41:33.41 bitrate=N/A speed=28.3x    
[hls @ 0x55d63b21dd40] Opening '/data/transcodes/9f63163b61b92ef96dd6b4b86ab31d7c447.ts' for writing
[hls @ 0x55d63b21dd40] Opening '/data/transcodes/9f63163b61b92ef96dd6b4b86ab31d7c448.ts' for writing
[hls @ 0x55d63b21dd40] Opening '/data/transcodes/9f63163b61b92ef96dd6b4b86ab31d7c449.ts' for writing
frame=62733 fps=707 q=-1.0 size=N/A time=00:41:49.32 bitrate=N/A speed=28.3x    
[hls @ 0x55d63b21dd40] Opening '/data/transcodes/9f63163b61b92ef96dd6b4b86ab31d7c450.ts' for writing
[hls @ 0x55d63b21dd40] Opening '/data/transcodes/9f63163b61b92ef96dd6b4b86ab31d7c451.ts' for writing
frame=63082 fps=707 q=-1.0 size=N/A time=00:42:03.36 bitrate=N/A speed=28.3x    
[hls @ 0x55d63b21dd40] Opening '/data/transcodes/9f63163b61b92ef96dd6b4b86ab31d7c452.ts' for writing
[hls @ 0x55d63b21dd40] Opening '/data/transcodes/9f63163b61b92ef96dd6b4b86ab31d7c453.ts' for writing
[hls @ 0x55d63b21dd40] Opening '/data/transcodes/9f63163b61b92ef96dd6b4b86ab31d7c454.ts' for writing
frame=63514 fps=708 q=-1.0 size=N/A time=00:42:20.70 bitrate=N/A speed=28.3x    
[hls @ 0x55d63b21dd40] Opening '/data/transcodes/9f63163b61b92ef96dd6b4b86ab31d7c455.ts' for writing
[hls @ 0x55d63b21dd40] Opening '/data/transcodes/9f63163b61b92ef96dd6b4b86ab31d7c456.ts' for writing
[hls @ 0x55d63b21dd40] Opening '/data/transcodes/9f63163b61b92ef96dd6b4b86ab31d7c457.ts' for writing
frame=63955 fps=709 q=-1.0 size=N/A time=00:42:38.47 bitrate=N/A speed=28.4x    
[hls @ 0x55d63b21dd40] Opening '/data/transcodes/9f63163b61b92ef96dd6b4b86ab31d7c458.ts' for writing
[hls @ 0x55d63b21dd40] Opening '/data/transcodes/9f63163b61b92ef96dd6b4b86ab31d7c459.ts' for writing
frame=64312 fps=709 q=-1.0 size=N/A time=00:42:52.70 bitrate=N/A speed=28.4x    
[hls @ 0x55d63b21dd40] Opening '/data/transcodes/9f63163b61b92ef96dd6b4b86ab31d7c460.ts' for writing
[hls @ 0x55d63b21dd40] Opening '/data/transcodes/9f63163b61b92ef96dd6b4b86ab31d7c461.ts' for writing
[hls @ 0x55d63b21dd40] Opening '/data/transcodes/9f63163b61b92ef96dd6b4b86ab31d7c462.ts' for writing
frame=64729 fps=710 q=-1.0 size=N/A time=00:43:09.26 bitrate=N/A speed=28.4x    
[hls @ 0x55d63b21dd40] Opening '/data/transcodes/9f63163b61b92ef96dd6b4b86ab31d7c463.ts' for writing
[hls @ 0x55d63b21dd40] Opening '/data/transcodes/9f63163b61b92ef96dd6b4b86ab31d7c464.ts' for writing
[hls @ 0x55d63b21dd40] Opening '/data/transcodes/9f63163b61b92ef96dd6b4b86ab31d7c465.ts' for writing
frame=65245 fps=711 q=-1.0 size=N/A time=00:43:29.86 bitrate=N/A speed=28.5x    
[hls @ 0x55d63b21dd40] Opening '/data/transcodes/9f63163b61b92ef96dd6b4b86ab31d7c466.ts' for writing
[hls @ 0x55d63b21dd40] Opening '/data/transcodes/9f63163b61b92ef96dd6b4b86ab31d7c467.ts' for writing
[hls @ 0x55d63b21dd40] Opening '/data/transcodes/9f63163b61b92ef96dd6b4b86ab31d7c468.ts' for writing
frame=65551 fps=711 q=-1.0 size=N/A time=00:43:42.05 bitrate=N/A speed=28.4x    
[hls @ 0x55d63b21dd40] Opening '/data/transcodes/9f63163b61b92ef96dd6b4b86ab31d7c469.ts' for writing
[hls @ 0x55d63b21dd40] Opening '/data/transcodes/9f63163b61b92ef96dd6b4b86ab31d7c470.ts' for writing
frame=65880 fps=711 q=-1.0 size=N/A time=00:43:55.36 bitrate=N/A speed=28.4x    
[hls @ 0x55d63b21dd40] Opening '/data/transcodes/9f63163b61b92ef96dd6b4b86ab31d7c471.ts' for writing
[hls @ 0x55d63b21dd40] Opening '/data/transcodes/9f63163b61b92ef96dd6b4b86ab31d7c472.ts' for writing
[hls @ 0x55d63b21dd40] Opening '/data/transcodes/9f63163b61b92ef96dd6b4b86ab31d7c473.ts' for writing
frame=66301 fps=711 q=-1.0 size=N/A time=00:44:12.00 bitrate=N/A speed=28.4x    
[hls @ 0x55d63b21dd40] Opening '/data/transcodes/9f63163b61b92ef96dd6b4b86ab31d7c474.ts' for writing
[hls @ 0x55d63b21dd40] Opening '/data/transcodes/9f63163b61b92ef96dd6b4b86ab31d7c475.ts' for writing
frame=66639 fps=711 q=-1.0 size=N/A time=00:44:25.76 bitrate=N/A speed=28.4x    
[hls @ 0x55d63b21dd40] Opening '/data/transcodes/9f63163b61b92ef96dd6b4b86ab31d7c476.ts' for writing
[hls @ 0x55d63b21dd40] Opening '/data/transcodes/9f63163b61b92ef96dd6b4b86ab31d7c477.ts' for writing
[hls @ 0x55d63b21dd40] Opening '/data/transcodes/9f63163b61b92ef96dd6b4b86ab31d7c478.ts' for writing
frame=67095 fps=712 q=-1.0 size=N/A time=00:44:43.93 bitrate=N/A speed=28.5x    
[hls @ 0x55d63b21dd40] Opening '/data/transcodes/9f63163b61b92ef96dd6b4b86ab31d7c479.ts' for writing
[hls @ 0x55d63b21dd40] Opening '/data/transcodes/9f63163b61b92ef96dd6b4b86ab31d7c480.ts' for writing
[hls @ 0x55d63b21dd40] Opening '/data/transcodes/9f63163b61b92ef96dd6b4b86ab31d7c481.ts' for writing
frame=67525 fps=713 q=-1.0 size=N/A time=00:45:01.15 bitrate=N/A speed=28.5x    
[hls @ 0x55d63b21dd40] Opening '/data/transcodes/9f63163b61b92ef96dd6b4b86ab31d7c482.ts' for writing
[hls @ 0x55d63b21dd40] Opening '/data/transcodes/9f63163b61b92ef96dd6b4b86ab31d7c483.ts' for writing
frame=67855 fps=713 q=-1.0 size=N/A time=00:45:14.27 bitrate=N/A speed=28.5x    
[hls @ 0x55d63b21dd40] Opening '/data/transcodes/9f63163b61b92ef96dd6b4b86ab31d7c484.ts' for writing
[hls @ 0x55d63b21dd40] Opening '/data/transcodes/9f63163b61b92ef96dd6b4b86ab31d7c485.ts' for writing
frame=68238 fps=713 q=-1.0 size=N/A time=00:45:29.76 bitrate=N/A speed=28.5x    
[hls @ 0x55d63b21dd40] Opening '/data/transcodes/9f63163b61b92ef96dd6b4b86ab31d7c486.ts' for writing
[hls @ 0x55d63b21dd40] Opening '/data/transcodes/9f63163b61b92ef96dd6b4b86ab31d7c487.ts' for writing
[hls @ 0x55d63b21dd40] Opening '/data/transcodes/9f63163b61b92ef96dd6b4b86ab31d7c488.ts' for writing
frame=68605 fps=713 q=-1.0 size=N/A time=00:45:44.46 bitrate=N/A speed=28.5x    
[hls @ 0x55d63b21dd40] Opening '/data/transcodes/9f63163b61b92ef96dd6b4b86ab31d7c489.ts' for writing
[hls @ 0x55d63b21dd40] Opening '/data/transcodes/9f63163b61b92ef96dd6b4b86ab31d7c490.ts' for writing
frame=68951 fps=713 q=-1.0 size=N/A time=00:45:58.11 bitrate=N/A speed=28.5x    
[hls @ 0x55d63b21dd40] Opening '/data/transcodes/9f63163b61b92ef96dd6b4b86ab31d7c491.ts' for writing
[hls @ 0x55d63b21dd40] Opening '/data/transcodes/9f63163b61b92ef96dd6b4b86ab31d7c492.ts' for writing
frame=69261 fps=712 q=-1.0 size=N/A time=00:46:10.72 bitrate=N/A speed=28.5x    
[hls @ 0x55d63b21dd40] Opening '/data/transcodes/9f63163b61b92ef96dd6b4b86ab31d7c493.ts' for writing
[hls @ 0x55d63b21dd40] Opening '/data/transcodes/9f63163b61b92ef96dd6b4b86ab31d7c494.ts' for writing
[hls @ 0x55d63b21dd40] Opening '/data/transcodes/9f63163b61b92ef96dd6b4b86ab31d7c495.ts' for writing
frame=69602 fps=712 q=-1.0 size=N/A time=00:46:24.22 bitrate=N/A speed=28.5x    
[hls @ 0x55d63b21dd40] Opening '/data/transcodes/9f63163b61b92ef96dd6b4b86ab31d7c496.ts' for writing
[hls @ 0x55d63b21dd40] Opening '/data/transcodes/9f63163b61b92ef96dd6b4b86ab31d7c497.ts' for writing
frame=70018 fps=713 q=-1.0 size=N/A time=00:46:40.86 bitrate=N/A speed=28.5x    
[hls @ 0x55d63b21dd40] Opening '/data/transcodes/9f63163b61b92ef96dd6b4b86ab31d7c498.ts' for writing
[hls @ 0x55d63b21dd40] Opening '/data/transcodes/9f63163b61b92ef96dd6b4b86ab31d7c499.ts' for writing
frame=70304 fps=712 q=-1.0 size=N/A time=00:46:52.42 bitrate=N/A speed=28.5x    
[hls @ 0x55d63b21dd40] Opening '/data/transcodes/9f63163b61b92ef96dd6b4b86ab31d7c500.ts' for writing
[hls @ 0x55d63b21dd40] Opening '/data/transcodes/9f63163b61b92ef96dd6b4b86ab31d7c501.ts' for writing
frame=70612 fps=712 q=-1.0 size=N/A time=00:47:04.58 bitrate=N/A speed=28.5x    
[hls @ 0x55d63b21dd40] Opening '/data/transcodes/9f63163b61b92ef96dd6b4b86ab31d7c502.ts' for writing
[hls @ 0x55d63b21dd40] Opening '/data/transcodes/9f63163b61b92ef96dd6b4b86ab31d7c503.ts' for writing
[hls @ 0x55d63b21dd40] Opening '/data/transcodes/9f63163b61b92ef96dd6b4b86ab31d7c504.ts' for writing
frame=71051 fps=712 q=-1.0 size=N/A time=00:47:22.12 bitrate=N/A speed=28.5x    
[hls @ 0x55d63b21dd40] Opening '/data/transcodes/9f63163b61b92ef96dd6b4b86ab31d7c505.ts' for writing
[hls @ 0x55d63b21dd40] Opening '/data/transcodes/9f63163b61b92ef96dd6b4b86ab31d7c506.ts' for writing
[hls @ 0x55d63b21dd40] Opening '/data/transcodes/9f63163b61b92ef96dd6b4b86ab31d7c507.ts' for writing
frame=71531 fps=714 q=-1.0 size=N/A time=00:47:41.38 bitrate=N/A speed=28.5x    
[hls @ 0x55d63b21dd40] Opening '/data/transcodes/9f63163b61b92ef96dd6b4b86ab31d7c508.ts' for writing
[hls @ 0x55d63b21dd40] Opening '/data/transcodes/9f63163b61b92ef96dd6b4b86ab31d7c509.ts' for writing
[hls @ 0x55d63b21dd40] Opening '/data/transcodes/9f63163b61b92ef96dd6b4b86ab31d7c510.ts' for writing
frame=71924 fps=714 q=-1.0 size=N/A time=00:47:57.15 bitrate=N/A speed=28.6x    
[hls @ 0x55d63b21dd40] Opening '/data/transcodes/9f63163b61b92ef96dd6b4b86ab31d7c511.ts' for writing
[hls @ 0x55d63b21dd40] Opening '/data/transcodes/9f63163b61b92ef96dd6b4b86ab31d7c512.ts' for writing
[hls @ 0x55d63b21dd40] Opening '/data/transcodes/9f63163b61b92ef96dd6b4b86ab31d7c513.ts' for writing
frame=72301 fps=714 q=-1.0 size=N/A time=00:48:12.19 bitrate=N/A speed=28.6x    
[hls @ 0x55d63b21dd40] Opening '/data/transcodes/9f63163b61b92ef96dd6b4b86ab31d7c514.ts' for writing
[hls @ 0x55d63b21dd40] Opening '/data/transcodes/9f63163b61b92ef96dd6b4b86ab31d7c515.ts' for writing
frame=72657 fps=714 q=-1.0 size=N/A time=00:48:26.27 bitrate=N/A speed=28.6x    
[hls @ 0x55d63b21dd40] Opening '/data/transcodes/9f63163b61b92ef96dd6b4b86ab31d7c516.ts' for writing
[hls @ 0x55d63b21dd40] Opening '/data/transcodes/9f63163b61b92ef96dd6b4b86ab31d7c517.ts' for writing
frame=73026 fps=714 q=-1.0 size=N/A time=00:48:41.05 bitrate=N/A speed=28.6x    
[hls @ 0x55d63b21dd40] Opening '/data/transcodes/9f63163b61b92ef96dd6b4b86ab31d7c518.ts' for writing
[hls @ 0x55d63b21dd40] Opening '/data/transcodes/9f63163b61b92ef96dd6b4b86ab31d7c519.ts' for writing
[hls @ 0x55d63b21dd40] Opening '/data/transcodes/9f63163b61b92ef96dd6b4b86ab31d7c520.ts' for writing
frame=73351 fps=714 q=-1.0 size=N/A time=00:48:54.11 bitrate=N/A speed=28.6x    
[hls @ 0x55d63b21dd40] Opening '/data/transcodes/9f63163b61b92ef96dd6b4b86ab31d7c521.ts' for writing
[hls @ 0x55d63b21dd40] Opening '/data/transcodes/9f63163b61b92ef96dd6b4b86ab31d7c522.ts' for writing
frame=73720 fps=714 q=-1.0 size=N/A time=00:49:08.81 bitrate=N/A speed=28.6x    
[hls @ 0x55d63b21dd40] Opening '/data/transcodes/9f63163b61b92ef96dd6b4b86ab31d7c523.ts' for writing
[hls @ 0x55d63b21dd40] Opening '/data/transcodes/9f63163b61b92ef96dd6b4b86ab31d7c524.ts' for writing
[hls @ 0x55d63b21dd40] Opening '/data/transcodes/9f63163b61b92ef96dd6b4b86ab31d7c525.ts' for writing
frame=74163 fps=715 q=-1.0 size=N/A time=00:49:26.69 bitrate=N/A speed=28.6x    
[hls @ 0x55d63b21dd40] Opening '/data/transcodes/9f63163b61b92ef96dd6b4b86ab31d7c526.ts' for writing
[hls @ 0x55d63b21dd40] Opening '/data/transcodes/9f63163b61b92ef96dd6b4b86ab31d7c527.ts' for writing
[hls @ 0x55d63b21dd40] Opening '/data/transcodes/9f63163b61b92ef96dd6b4b86ab31d7c528.ts' for writing
frame=74589 fps=716 q=-1.0 size=N/A time=00:49:43.65 bitrate=N/A speed=28.6x    
[hls @ 0x55d63b21dd40] Opening '/data/transcodes/9f63163b61b92ef96dd6b4b86ab31d7c529.ts' for writing
frame=74843 fps=715 q=-1.0 size=N/A time=00:49:53.82 bitrate=N/A speed=28.6x    
[hls @ 0x55d63b21dd40] Opening '/data/transcodes/9f63163b61b92ef96dd6b4b86ab31d7c530.ts' for writing
[hls @ 0x55d63b21dd40] Opening '/data/transcodes/9f63163b61b92ef96dd6b4b86ab31d7c531.ts' for writing
[hls @ 0x55d63b21dd40] Opening '/data/transcodes/9f63163b61b92ef96dd6b4b86ab31d7c532.ts' for writing
frame=75255 fps=715 q=-1.0 size=N/A time=00:50:10.38 bitrate=N/A speed=28.6x    
[hls @ 0x55d63b21dd40] Opening '/data/transcodes/9f63163b61b92ef96dd6b4b86ab31d7c533.ts' for writing
[hls @ 0x55d63b21dd40] Opening '/data/transcodes/9f63163b61b92ef96dd6b4b86ab31d7c534.ts' for writing
[hls @ 0x55d63b21dd40] Opening '/data/transcodes/9f63163b61b92ef96dd6b4b86ab31d7c535.ts' for writing
frame=75682 fps=716 q=-1.0 size=N/A time=00:50:27.49 bitrate=N/A speed=28.6x    
[hls @ 0x55d63b21dd40] Opening '/data/transcodes/9f63163b61b92ef96dd6b4b86ab31d7c536.ts' for writing
[hls @ 0x55d63b21dd40] Opening '/data/transcodes/9f63163b61b92ef96dd6b4b86ab31d7c537.ts' for writing
[hls @ 0x55d63b21dd40] Opening '/data/transcodes/9f63163b61b92ef96dd6b4b86ab31d7c538.ts' for writing
frame=76136 fps=717 q=-1.0 size=N/A time=00:50:45.51 bitrate=N/A speed=28.7x    
[hls @ 0x55d63b21dd40] Opening '/data/transcodes/9f63163b61b92ef96dd6b4b86ab31d7c539.ts' for writing
[hls @ 0x55d63b21dd40] Opening '/data/transcodes/9f63163b61b92ef96dd6b4b86ab31d7c540.ts' for writing
[hls @ 0x55d63b21dd40] Opening '/data/transcodes/9f63163b61b92ef96dd6b4b86ab31d7c541.ts' for writing
frame=76562 fps=717 q=-1.0 size=N/A time=00:51:02.56 bitrate=N/A speed=28.7x    
[hls @ 0x55d63b21dd40] Opening '/data/transcodes/9f63163b61b92ef96dd6b4b86ab31d7c542.ts' for writing
[hls @ 0x55d63b21dd40] Opening '/data/transcodes/9f63163b61b92ef96dd6b4b86ab31d7c543.ts' for writing
frame=76843 fps=717 q=-1.0 size=N/A time=00:51:13.89 bitrate=N/A speed=28.7x    
[hls @ 0x55d63b21dd40] Opening '/data/transcodes/9f63163b61b92ef96dd6b4b86ab31d7c544.ts' for writing
[hls @ 0x55d63b21dd40] Opening '/data/transcodes/9f63163b61b92ef96dd6b4b86ab31d7c545.ts' for writing
frame=77232 fps=717 q=-1.0 size=N/A time=00:51:29.50 bitrate=N/A speed=28.7x    
[hls @ 0x55d63b21dd40] Opening '/data/transcodes/9f63163b61b92ef96dd6b4b86ab31d7c546.ts' for writing
[hls @ 0x55d63b21dd40] Opening '/data/transcodes/9f63163b61b92ef96dd6b4b86ab31d7c547.ts' for writing
[hls @ 0x55d63b21dd40] Opening '/data/transcodes/9f63163b61b92ef96dd6b4b86ab31d7c548.ts' for writing
frame=77601 fps=717 q=-1.0 size=N/A time=00:51:44.03 bitrate=N/A speed=28.7x    
[hls @ 0x55d63b21dd40] Opening '/data/transcodes/9f63163b61b92ef96dd6b4b86ab31d7c549.ts' for writing
frame=77838 fps=716 q=-1.0 size=N/A time=00:51:53.57 bitrate=N/A speed=28.6x    
[hls @ 0x55d63b21dd40] Opening '/data/transcodes/9f63163b61b92ef96dd6b4b86ab31d7c550.ts' for writing
[hls @ 0x55d63b21dd40] Opening '/data/transcodes/9f63163b61b92ef96dd6b4b86ab31d7c551.ts' for writing
[hls @ 0x55d63b21dd40] Opening '/data/transcodes/9f63163b61b92ef96dd6b4b86ab31d7c552.ts' for writing
frame=78151 fps=715 q=-1.0 size=N/A time=00:52:05.98 bitrate=N/A speed=28.6x    
[hls @ 0x55d63b21dd40] Opening '/data/transcodes/9f63163b61b92ef96dd6b4b86ab31d7c553.ts' for writing
[hls @ 0x55d63b21dd40] Opening '/data/transcodes/9f63163b61b92ef96dd6b4b86ab31d7c554.ts' for writing
frame=78493 fps=715 q=-1.0 size=N/A time=00:52:19.78 bitrate=N/A speed=28.6x    
[hls @ 0x55d63b21dd40] Opening '/data/transcodes/9f63163b61b92ef96dd6b4b86ab31d7c555.ts' for writing
[hls @ 0x55d63b21dd40] Opening '/data/transcodes/9f63163b61b92ef96dd6b4b86ab31d7c556.ts' for writing
[hls @ 0x55d63b21dd40] Opening '/data/transcodes/9f63163b61b92ef96dd6b4b86ab31d7c557.ts' for writing
frame=78901 fps=716 q=-1.0 size=N/A time=00:52:36.00 bitrate=N/A speed=28.6x    
[hls @ 0x55d63b21dd40] Opening '/data/transcodes/9f63163b61b92ef96dd6b4b86ab31d7c558.ts' for writing
[hls @ 0x55d63b21dd40] Opening '/data/transcodes/9f63163b61b92ef96dd6b4b86ab31d7c559.ts' for writing
[hls @ 0x55d63b21dd40] Opening '/data/transcodes/9f63163b61b92ef96dd6b4b86ab31d7c560.ts' for writing
frame=79351 fps=716 q=-1.0 size=N/A time=00:52:54.02 bitrate=N/A speed=28.7x    
[hls @ 0x55d63b21dd40] Opening '/data/transcodes/9f63163b61b92ef96dd6b4b86ab31d7c561.ts' for writing
[hls @ 0x55d63b21dd40] Opening '/data/transcodes/9f63163b61b92ef96dd6b4b86ab31d7c562.ts' for writing
frame=79670 fps=716 q=-1.0 size=N/A time=00:53:06.91 bitrate=N/A speed=28.6x    
[hls @ 0x55d63b21dd40] Opening '/data/transcodes/9f63163b61b92ef96dd6b4b86ab31d7c563.ts' for writing
[hls @ 0x55d63b21dd40] Opening '/data/transcodes/9f63163b61b92ef96dd6b4b86ab31d7c564.ts' for writing
frame=80068 fps=716 q=-1.0 size=N/A time=00:53:22.97 bitrate=N/A speed=28.7x    
[hls @ 0x55d63b21dd40] Opening '/data/transcodes/9f63163b61b92ef96dd6b4b86ab31d7c565.ts' for writing
[hls @ 0x55d63b21dd40] Opening '/data/transcodes/9f63163b61b92ef96dd6b4b86ab31d7c566.ts' for writing
[hls @ 0x55d63b21dd40] Opening '/data/transcodes/9f63163b61b92ef96dd6b4b86ab31d7c567.ts' for writing
frame=80405 fps=716 q=-1.0 size=N/A time=00:53:36.35 bitrate=N/A speed=28.7x    
[hls @ 0x55d63b21dd40] Opening '/data/transcodes/9f63163b61b92ef96dd6b4b86ab31d7c568.ts' for writing
[hls @ 0x55d63b21dd40] Opening '/data/transcodes/9f63163b61b92ef96dd6b4b86ab31d7c569.ts' for writing
frame=80763 fps=716 q=-1.0 size=N/A time=00:53:50.56 bitrate=N/A speed=28.7x    
[hls @ 0x55d63b21dd40] Opening '/data/transcodes/9f63163b61b92ef96dd6b4b86ab31d7c570.ts' for writing
[hls @ 0x55d63b21dd40] Opening '/data/transcodes/9f63163b61b92ef96dd6b4b86ab31d7c571.ts' for writing
[hls @ 0x55d63b21dd40] Opening '/data/transcodes/9f63163b61b92ef96dd6b4b86ab31d7c572.ts' for writing
frame=81213 fps=717 q=-1.0 size=N/A time=00:54:08.73 bitrate=N/A speed=28.7x    
[hls @ 0x55d63b21dd40] Opening '/data/transcodes/9f63163b61b92ef96dd6b4b86ab31d7c573.ts' for writing
[hls @ 0x55d63b21dd40] Opening '/data/transcodes/9f63163b61b92ef96dd6b4b86ab31d7c574.ts' for writing
[hls @ 0x55d63b21dd40] Opening '/data/transcodes/9f63163b61b92ef96dd6b4b86ab31d7c575.ts' for writing
frame=81687 fps=718 q=-1.0 size=N/A time=00:54:27.68 bitrate=N/A speed=28.7x    
[hls @ 0x55d63b21dd40] Opening '/data/transcodes/9f63163b61b92ef96dd6b4b86ab31d7c576.ts' for writing
[hls @ 0x55d63b21dd40] Opening '/data/transcodes/9f63163b61b92ef96dd6b4b86ab31d7c577.ts' for writing
[hls @ 0x55d63b21dd40] Opening '/data/transcodes/9f63163b61b92ef96dd6b4b86ab31d7c578.ts' for writing
frame=82139 fps=719 q=-1.0 size=N/A time=00:54:45.77 bitrate=N/A speed=28.8x    
[hls @ 0x55d63b21dd40] Opening '/data/transcodes/9f63163b61b92ef96dd6b4b86ab31d7c579.ts' for writing
[hls @ 0x55d63b21dd40] Opening '/data/transcodes/9f63163b61b92ef96dd6b4b86ab31d7c580.ts' for writing
[hls @ 0x55d63b21dd40] Opening '/data/transcodes/9f63163b61b92ef96dd6b4b86ab31d7c581.ts' for writing
frame=82555 fps=719 q=-1.0 size=N/A time=00:55:02.37 bitrate=N/A speed=28.8x    
[hls @ 0x55d63b21dd40] Opening '/data/transcodes/9f63163b61b92ef96dd6b4b86ab31d7c582.ts' for writing
[hls @ 0x55d63b21dd40] Opening '/data/transcodes/9f63163b61b92ef96dd6b4b86ab31d7c583.ts' for writing
[hls @ 0x55d63b21dd40] Opening '/data/transcodes/9f63163b61b92ef96dd6b4b86ab31d7c584.ts' for writing
frame=83019 fps=720 q=-1.0 size=N/A time=00:55:20.80 bitrate=N/A speed=28.8x    
[hls @ 0x55d63b21dd40] Opening '/data/transcodes/9f63163b61b92ef96dd6b4b86ab31d7c585.ts' for writing
[hls @ 0x55d63b21dd40] Opening '/data/transcodes/9f63163b61b92ef96dd6b4b86ab31d7c586.ts' for writing
[hls @ 0x55d63b21dd40] Opening '/data/transcodes/9f63163b61b92ef96dd6b4b86ab31d7c587.ts' for writing
[hls @ 0x55d63b21dd40] Opening '/data/transcodes/9f63163b61b92ef96dd6b4b86ab31d7c588.ts' for writing
frame=83517 fps=721 q=-1.0 Lsize=N/A time=00:55:40.77 bitrate=N/A speed=28.8x    
video:2407003kB audio:104337kB subtitle:0kB other streams:0kB global headers:0kB muxing overhead: unknown